<?xml version="1.0" encoding="UTF-8"?>
<svg xmlns="http://www.w3.org/2000/svg" xmlns:xlink="http://www.w3.org/1999/xlink" width="375pt" height="374.999991pt" viewBox="0 0 375 374.999991" version="1.2">
<defs>
<clipPath id="clip1">
  <path d="M 0 35 L 332 35 L 332 375 L 0 375 Z M 0 35 "/>
</clipPath>
<clipPath id="clip2">
  <path d="M 26.835938 -35.203125 L 402.324219 146.175781 L 220.949219 521.664062 L -154.539062 340.285156 Z M 26.835938 -35.203125 "/>
</clipPath>
<clipPath id="clip3">
  <path d="M 26.835938 -35.203125 L 402.324219 146.175781 L 220.949219 521.664062 L -154.539062 340.285156 Z M 26.835938 -35.203125 "/>
</clipPath>
<clipPath id="clip4">
  <path d="M 6 154 L 67 154 L 67 215 L 6 215 Z M 6 154 "/>
</clipPath>
<clipPath id="clip5">
  <path d="M 26.835938 -35.203125 L 402.324219 146.175781 L 220.949219 521.664062 L -154.539062 340.285156 Z M 26.835938 -35.203125 "/>
</clipPath>
<clipPath id="clip6">
  <path d="M 26.835938 -35.203125 L 402.324219 146.175781 L 220.949219 521.664062 L -154.539062 340.285156 Z M 26.835938 -35.203125 "/>
</clipPath>
<clipPath id="clip7">
  <path d="M 194 245 L 255 245 L 255 305 L 194 305 Z M 194 245 "/>
</clipPath>
<clipPath id="clip8">
  <path d="M 26.835938 -35.203125 L 402.324219 146.175781 L 220.949219 521.664062 L -154.539062 340.285156 Z M 26.835938 -35.203125 "/>
</clipPath>
<clipPath id="clip9">
  <path d="M 26.835938 -35.203125 L 402.324219 146.175781 L 220.949219 521.664062 L -154.539062 340.285156 Z M 26.835938 -35.203125 "/>
</clipPath>
<clipPath id="clip10">
  <path d="M 44 248 L 160 248 L 160 366 L 44 366 Z M 44 248 "/>
</clipPath>
<clipPath id="clip11">
  <path d="M 26.835938 -35.203125 L 402.324219 146.175781 L 220.949219 521.664062 L -154.539062 340.285156 Z M 26.835938 -35.203125 "/>
</clipPath>
<clipPath id="clip12">
  <path d="M 26.835938 -35.203125 L 402.324219 146.175781 L 220.949219 521.664062 L -154.539062 340.285156 Z M 26.835938 -35.203125 "/>
</clipPath>
</defs>
<g id="surface1">
<rect x="0" y="0" width="375" height="374.999991" style="fill:rgb(100%,100%,100%);fill-opacity:1;stroke:none;"/>
<rect x="0" y="0" width="375" height="374.999991" style="fill:rgb(100%,100%,100%);fill-opacity:1;stroke:none;"/>
<rect x="0" y="0" width="375" height="374.999991" style="fill:rgb(44.309998%,75.689697%,90.979004%);fill-opacity:1;stroke:none;"/>
<g clip-path="url(#clip1)" clip-rule="nonzero">
<g clip-path="url(#clip2)" clip-rule="nonzero">
<g clip-path="url(#clip3)" clip-rule="nonzero">
<path style=" stroke:none;fill-rule:nonzero;fill:rgb(0%,2.349854%,6.269836%);fill-opacity:1;" d="M 319.601562 174.273438 C 301.699219 123.203125 267.519531 82.066406 214.015625 55.214844 C 165.164062 31.617188 109.160156 28.710938 56.25 47.0625 C 1.183594 66.148438 -42.007812 107.324219 -63.851562 152.542969 C -120.636719 270.097656 -84.363281 374.183594 33.203125 430.972656 C 150.773438 487.765625 254.851562 451.472656 311.636719 333.917969 C 336.433594 282.582031 336.753906 223.195312 319.601562 174.273438 Z M 46.160156 404.152344 C -57.609375 354.027344 -87.15625 269.265625 -37.03125 165.496094 C -31.242188 153.507812 -23.871094 142.363281 -15.425781 132.039062 C 12.761719 113.121094 43.230469 108.289062 70.640625 118.652344 C 97.832031 128.957031 119.105469 153.09375 126.027344 181.660156 C 130.628906 200.554688 153.097656 211.425781 170.773438 203.257812 C 197.425781 190.941406 229.375 192.53125 254.550781 207.488281 C 279.722656 222.523438 294.863281 249.386719 297.582031 283.234375 C 294.757812 296.273438 290.601562 308.988281 284.816406 320.960938 C 234.691406 424.730469 149.929688 454.277344 46.160156 404.152344 Z M 46.160156 404.152344 "/>
</g>
</g>
</g>
<g clip-path="url(#clip4)" clip-rule="nonzero">
<g clip-path="url(#clip5)" clip-rule="nonzero">
<g clip-path="url(#clip6)" clip-rule="nonzero">
<path style=" stroke:none;fill-rule:nonzero;fill:rgb(0%,2.349854%,6.269836%);fill-opacity:1;" d="M 63.320312 197.429688 C 56.171875 212.222656 38.335938 218.441406 23.542969 211.296875 C 8.75 204.152344 2.53125 186.3125 9.675781 171.519531 C 16.820312 156.730469 34.660156 150.511719 49.453125 157.65625 C 64.246094 164.800781 70.464844 182.640625 63.320312 197.429688 Z M 63.320312 197.429688 "/>
</g>
</g>
</g>
<g clip-path="url(#clip7)" clip-rule="nonzero">
<g clip-path="url(#clip8)" clip-rule="nonzero">
<g clip-path="url(#clip9)" clip-rule="nonzero">
<path style=" stroke:none;fill-rule:nonzero;fill:rgb(0%,2.349854%,6.269836%);fill-opacity:1;" d="M 251.0625 288.121094 C 243.917969 302.910156 226.078125 309.128906 211.285156 301.984375 C 196.496094 294.839844 190.277344 277 197.421875 262.207031 C 204.566406 247.417969 222.40625 241.199219 237.199219 248.34375 C 251.988281 255.488281 258.207031 273.328125 251.0625 288.121094 Z M 251.0625 288.121094 "/>
</g>
</g>
</g>
<g clip-path="url(#clip10)" clip-rule="nonzero">
<g clip-path="url(#clip11)" clip-rule="nonzero">
<g clip-path="url(#clip12)" clip-rule="nonzero">
<path style=" stroke:none;fill-rule:nonzero;fill:rgb(0%,2.349854%,6.269836%);fill-opacity:1;" d="M 157.523438 295.332031 C 136.375 259.464844 103.425781 243.550781 62.1875 249.28125 C 56.058594 250.125 51.097656 254.675781 49.714844 260.722656 C 42.09375 294.105469 40.582031 313.222656 58.3125 356.1875 C 59.746094 359.691406 62.402344 362.382812 65.59375 363.921875 C 68.757812 365.453125 72.472656 365.875 76.078125 364.851562 C 120.5 352.421875 134.648438 339.261719 156.300781 312.207031 C 160.179688 307.363281 160.660156 300.652344 157.523438 295.332031 Z M 157.523438 295.332031 "/>
</g>
</g>
</g>
</g>
</svg>
