<svg xmlns="http://www.w3.org/2000/svg" xmlns:xlink="http://www.w3.org/1999/xlink" width="375" viewBox="0 0 375 375" height="375" version="1.0"><defs><g id="f"><path d="M 15.398438 0.148438 L 16.898438 0.148438 L 18.449219 -0.0507812 L 19.449219 -0.0507812 L 20.898438 -0.5 L 22.949219 -0.851562 L 25.296875 -1.851562 L 28.648438 -4.097656 L 31.097656 -7.25 L 31.597656 -8.25 L 32.195312 -9.050781 L 32.996094 -11 L 33.246094 -11.949219 L 33.445312 -13 L 33.746094 -13.847656 L 33.898438 -14.847656 L 33.898438 -15.898438 L 34.046875 -17.5 L 33.996094 -18.949219 L 33.296875 -22.898438 L 32.648438 -24.796875 L 32.246094 -25.746094 L 30.546875 -28.398438 L 27.898438 -31.347656 L 25.347656 -33.046875 L 24.398438 -33.597656 L 23.398438 -33.796875 L 22.546875 -34.195312 L 21.496094 -34.445312 L 18.546875 -34.898438 L 7.148438 -34.996094 L 6.25 -34.847656 L 5.25 -34.898438 L 4.148438 -34.445312 L 3.699219 -33.398438 L 3.648438 -5.449219 L 3.75 -4.5 L 3.75 -1.949219 L 4.25 -0.398438 L 5.25 0.101562 L 6.25 0 L 12.347656 0.101562 L 13.347656 -0.0507812 Z M 15.25 -8.050781 L 14.296875 -8.148438 L 13.148438 -8.699219 L 12.75 -9.648438 L 12.699219 -10.5 L 12.75 -12.546875 L 12.546875 -15 L 12.75 -17.5 L 12.648438 -24.398438 L 12.75 -25.246094 L 13.25 -26.398438 L 14.847656 -26.746094 L 16.949219 -26.796875 L 18.398438 -26.648438 L 20.347656 -26.097656 L 21.246094 -25.648438 L 21.996094 -25.097656 L 22.746094 -24.398438 L 23.496094 -23.496094 L 23.996094 -22.648438 L 24.449219 -21.746094 L 25.246094 -17.347656 L 24.746094 -13.847656 L 23.898438 -12 L 22.046875 -9.898438 L 20.347656 -8.800781 L 18.898438 -8.347656 L 16.75 -8.097656 Z M 15.25 -8.050781"/></g><g id="g"><path d="M 2.398438 -1.449219 L 2.898438 -0.398438 L 3.898438 -0.0507812 L 18.75 0.0507812 L 19.699219 -0.449219 L 20.246094 -1.351562 L 20.246094 -2.449219 L 20.148438 -3.351562 L 20.296875 -6.398438 L 19.597656 -7.25 L 16.25 -8.300781 L 15.699219 -9.300781 L 15.796875 -13.398438 L 15.597656 -15.398438 L 15.796875 -17.5 L 15.699219 -19 L 15.796875 -20.546875 L 15.699219 -21.496094 L 15.796875 -22.496094 L 15.699219 -23.546875 L 15.699219 -25.648438 L 16.25 -26.546875 L 17.199219 -27.097656 L 18.296875 -27.148438 L 19.25 -27.695312 L 19.796875 -28.648438 L 19.796875 -31.597656 L 19.898438 -32.496094 L 19.796875 -33.496094 L 19.398438 -34.496094 L 17.796875 -34.945312 L 11.449219 -34.996094 L 10.347656 -34.898438 L 7.300781 -34.945312 L 6.347656 -34.898438 L 4.398438 -34.996094 L 3.300781 -34.496094 L 2.75 -33.445312 L 2.75 -32.496094 L 2.648438 -31.648438 L 2.648438 -30.546875 L 2.75 -29.546875 L 2.75 -28.597656 L 3.25 -27.648438 L 6.300781 -26.597656 L 6.949219 -25.699219 L 6.800781 -21.449219 L 6.847656 -20.597656 L 7 -19.449219 L 6.949219 -17.398438 L 6.847656 -16.398438 L 7.050781 -14.449219 L 6.800781 -13.449219 L 7 -11.300781 L 6.898438 -9.347656 L 6.398438 -8.25 L 3.101562 -7.199219 L 2.5 -6.25 L 2.398438 -5.300781 Z M 2.398438 -1.449219"/></g><g id="h"><path d="M 18.296875 0.601562 L 19.597656 0.648438 L 22.296875 0.398438 L 23.296875 0.199219 L 24.246094 0.148438 L 25.097656 -0.101562 L 28.796875 -1.699219 L 29.496094 -2.300781 L 31.148438 -3.351562 L 32.597656 -4.898438 L 34.195312 -7.25 L 35.347656 -9.550781 L 35.996094 -11.699219 L 36.046875 -12.648438 L 36.347656 -13.648438 L 36.546875 -17.449219 L 36.394531 -18.449219 L 35.796875 -19.449219 L 34.347656 -19.898438 L 21.796875 -19.898438 L 20.246094 -19.347656 L 19.796875 -18.398438 L 19.699219 -14.648438 L 19.898438 -13.699219 L 20.199219 -12.847656 L 21.148438 -12.398438 L 22.097656 -12.398438 L 22.996094 -12.296875 L 25.996094 -12.449219 L 26.699219 -11.898438 L 26.898438 -11.050781 L 26.496094 -10.25 L 25.046875 -8.847656 L 24.246094 -8.449219 L 22.347656 -7.847656 L 21.347656 -7.699219 L 19.898438 -7.648438 L 18.347656 -7.75 L 17.449219 -7.949219 L 16.546875 -8.300781 L 14.75 -9.25 L 13.25 -10.449219 L 12.699219 -11.300781 L 12.296875 -12.148438 L 11.75 -13.046875 L 11.398438 -14 L 11.097656 -19 L 11.648438 -20.796875 L 11.847656 -21.796875 L 12.597656 -23.648438 L 13.898438 -25.046875 L 15.546875 -26.199219 L 16.398438 -26.597656 L 18.347656 -27.246094 L 19.746094 -27.296875 L 22.347656 -26.996094 L 23.296875 -26.746094 L 25.796875 -25.199219 L 26.296875 -24.398438 L 27.398438 -23.597656 L 28.496094 -23.097656 L 33.398438 -23.097656 L 34.347656 -23.199219 L 35.195312 -23.496094 L 35.546875 -24.597656 L 33.945312 -28.296875 L 33.246094 -28.996094 L 31.996094 -30.597656 L 30.546875 -32.046875 L 27.148438 -34.148438 L 26.046875 -34.445312 L 25.246094 -34.796875 L 24.246094 -34.945312 L 23.148438 -35.246094 L 18.199219 -35.496094 L 15.148438 -34.996094 L 11.347656 -33.648438 L 10.449219 -33.195312 L 7.949219 -31.496094 L 6.449219 -30.097656 L 5.800781 -29.246094 L 5.300781 -28.445312 L 4.550781 -27.746094 L 4 -26.796875 L 2.449219 -22.996094 L 2.398438 -22.097656 L 1.851562 -19.898438 L 1.949219 -17.398438 L 1.851562 -16 L 1.898438 -14.949219 L 2.75 -11.097656 L 3.800781 -8.347656 L 4.347656 -7.398438 L 6.148438 -5.148438 L 7.550781 -3.699219 L 10.75 -1.550781 L 11.648438 -1.101562 L 14.449219 -0.101562 L 17.25 0.5 Z M 18.296875 0.601562"/></g><g id="i"><path d="M 9.597656 -1.550781 L 10 -0.5 L 11.050781 0 L 12 -0.101562 L 13 0 L 13.949219 -0.101562 L 17.046875 -0.101562 L 18.046875 -0.5 L 18.449219 -1.5 L 18.398438 -2.449219 L 18.5 -3.601562 L 18.449219 -5.597656 L 18.296875 -6.449219 L 18.449219 -7.5 L 18.546875 -10.550781 L 18.449219 -11.449219 L 18.597656 -13.546875 L 18.398438 -23.496094 L 18.546875 -24.496094 L 18.449219 -25.597656 L 18.847656 -26.496094 L 19.949219 -26.949219 L 20.796875 -26.996094 L 21.796875 -26.949219 L 22.699219 -27.046875 L 25.449219 -26.996094 L 26.597656 -27.445312 L 27.097656 -28.445312 L 26.996094 -29.496094 L 27.097656 -33.597656 L 26.597656 -34.597656 L 25.597656 -35.097656 L 24.398438 -34.996094 L 23.597656 -35.097656 L 22.648438 -35.097656 L 21.546875 -34.945312 L 20.546875 -34.945312 L 19.546875 -35.046875 L 18.546875 -35.046875 L 17.398438 -34.898438 L 2.5 -34.996094 L 1.398438 -34.496094 L 0.898438 -33.496094 L 0.851562 -28.496094 L 1.398438 -27.398438 L 2.398438 -26.898438 L 3.699219 -27.046875 L 8.148438 -26.996094 L 9.050781 -26.449219 L 9.550781 -25.496094 L 9.699219 -19.996094 L 9.550781 -18.449219 L 9.648438 -17.5 L 9.550781 -16.5 L 9.550781 -14.5 L 9.699219 -13.046875 L 9.5 -11.550781 L 9.550781 -10.550781 L 9.5 -9.5 L 9.648438 -6.449219 L 9.550781 -5.449219 Z M 9.597656 -1.550781"/></g><g id="j"><path d="M 0.648438 -1.351562 L 0.898438 -0.300781 L 1.898438 -0.0507812 L 6.300781 -0.0507812 L 7.597656 0.101562 L 8.75 -0.398438 L 9.648438 -1.300781 L 10.5 -3 L 11.347656 -3.949219 L 12.546875 -4.449219 L 13.546875 -4.347656 L 16.347656 -4.398438 L 17.398438 -4.25 L 18.546875 -4.398438 L 19.449219 -4.398438 L 20.496094 -4.300781 L 22.847656 -4.398438 L 24.496094 -3.851562 L 25.546875 -3.050781 L 25.796875 -2.148438 L 26.347656 -1.25 L 27.199219 -0.449219 L 28.496094 0.0507812 L 29.398438 -0.0507812 L 31.148438 0.101562 L 34.246094 0 L 35.148438 -0.300781 L 35.347656 -1.351562 L 35.046875 -2.601562 L 34.695312 -3.5 L 34.046875 -4.347656 L 33.746094 -5.347656 L 33.246094 -6.097656 L 32.945312 -7.050781 L 32.097656 -8.847656 L 31.746094 -9.800781 L 31.246094 -10.648438 L 30.546875 -12.5 L 29.996094 -13.296875 L 29.597656 -14.296875 L 29.148438 -15.148438 L 28.796875 -16.148438 L 28.347656 -16.898438 L 28.046875 -17.898438 L 27.496094 -18.796875 L 27.097656 -19.648438 L 26.597656 -20.496094 L 26.347656 -21.449219 L 25.347656 -23.199219 L 25.046875 -24.148438 L 24.148438 -26.046875 L 23.898438 -26.847656 L 23.148438 -28.597656 L 22.148438 -30.445312 L 21.347656 -32.347656 L 20.898438 -33.097656 L 20.597656 -34.046875 L 19.699219 -34.996094 L 18 -35.445312 L 16.398438 -34.945312 L 15.449219 -34.046875 L 15.148438 -33.148438 L 13 -28.648438 L 12.449219 -27.746094 L 9.648438 -21.449219 L 9.398438 -20.597656 L 8.847656 -19.699219 L 8.050781 -17.898438 L 7.300781 -16.597656 L 6.949219 -15.648438 L 6.25 -14.347656 L 5.949219 -13.296875 L 5.5 -12.5 L 5.148438 -11.5 L 3.75 -8.898438 L 2.300781 -5.25 L 1.699219 -4.449219 L 1.25 -3.449219 Z M 16.097656 -12.347656 L 15.148438 -12.75 L 15 -13.75 L 17 -18.296875 L 17.449219 -19.097656 L 18.097656 -19.597656 L 18.699219 -19.199219 L 19.347656 -17.25 L 19.898438 -16.398438 L 20.097656 -15.597656 L 20.597656 -14.597656 L 20.949219 -13.699219 L 20.847656 -12.796875 L 19.996094 -12.398438 Z M 16.097656 -12.347656"/></g><g id="k"><path d="M 3.75 -1.449219 L 4.199219 -0.550781 L 5.800781 0.0507812 L 23.496094 -0.0507812 L 24.898438 -0.550781 L 25.449219 -1.449219 L 25.347656 -2.550781 L 25.398438 -3.550781 L 25.496094 -4.449219 L 25.347656 -5.550781 L 25.496094 -6.5 L 24.847656 -7.597656 L 24.046875 -8.097656 L 22.949219 -7.949219 L 14.148438 -8.050781 L 13.097656 -8.5 L 12.796875 -9.597656 L 12.847656 -11.449219 L 12.699219 -12.398438 L 12.75 -13.5 L 12.648438 -14.5 L 12.75 -15.546875 L 12.699219 -18.046875 L 12.847656 -19.449219 L 12.699219 -20.546875 L 12.847656 -21.597656 L 12.699219 -29.398438 L 12.796875 -30.496094 L 12.699219 -32.945312 L 12.199219 -34.445312 L 10.898438 -35.046875 L 5.699219 -34.945312 L 4.25 -34.398438 L 3.601562 -33.046875 L 3.898438 -30.445312 L 3.800781 -29.496094 L 3.648438 -28.445312 L 3.800781 -27.445312 L 3.898438 -26.496094 L 3.75 -25.398438 L 3.800781 -24.449219 L 3.699219 -23.449219 L 3.851562 -22.398438 L 3.699219 -21.496094 L 3.800781 -20.496094 L 3.648438 -19.546875 L 3.800781 -17.398438 L 3.648438 -16.449219 L 3.800781 -14.449219 L 3.648438 -13.449219 L 3.699219 -11.449219 L 3.800781 -10.550781 L 3.75 -4.449219 L 3.851562 -3.449219 L 3.648438 -2.5 Z M 3.75 -1.449219"/></g><clipPath id="a"><path d="M 130 72.363281 L 245 72.363281 L 245 176 L 130 176 Z M 130 72.363281"/></clipPath><clipPath id="b"><path d="M 249 93 L 259.78125 93 L 259.78125 176 L 249 176 Z M 249 93"/></clipPath><clipPath id="c"><path d="M 115.03125 180 L 259.78125 180 L 259.78125 192 L 115.03125 192 Z M 115.03125 180"/></clipPath><clipPath id="d"><path d="M 115.03125 93 L 126 93 L 126 176 L 115.03125 176 Z M 115.03125 93"/></clipPath><clipPath id="e"><path d="M 158 196 L 216 196 L 216 222.363281 L 158 222.363281 Z M 158 196"/></clipPath></defs><path fill="#FFF" d="M-37.5 -37.5H412.5V412.5H-37.5z"/><path fill="#FFF" d="M-37.5 -37.5H412.5V412.5H-37.5z"/><path fill="#FFF" d="M-37.5 -37.5H412.5V412.5H-37.5z"/><path fill="#71C1E8" d="M 9.195312 9.296875 L 366.1875 9.296875 L 366.1875 362.546875 L 9.195312 362.546875 Z M 9.195312 9.296875"/><path fill="#FFF" d="M 160.527344 116.894531 L 149.691406 119.316406 C 146.808594 119.964844 144.335938 121.691406 142.742188 124.199219 C 141.15625 126.714844 140.632812 129.683594 141.289062 132.582031 C 141.933594 135.480469 143.660156 137.945312 146.160156 139.542969 C 148.671875 141.128906 151.640625 141.65625 154.535156 141.007812 L 162.546875 139.210938 L 165.371094 138.582031 L 162.949219 127.734375 L 160.527344 116.894531"/><path fill="#FFF" d="M 155.664062 146.058594 C 155.65625 146.058594 155.65625 146.058594 155.644531 146.058594 L 155.515625 146.089844 L 159.15625 162.433594 L 164.796875 161.171875 L 161.152344 144.828125 L 155.664062 146.058594"/><path fill="#FFF" d="M 203.863281 84.898438 C 203.570312 83.554688 202.367188 82.636719 201.046875 82.636719 C 200.835938 82.636719 200.625 82.65625 200.410156 82.707031 C 199.664062 82.867188 199.019531 83.324219 198.605469 83.980469 C 198.191406 84.625 198.058594 85.40625 198.222656 86.164062 L 212.507812 150.230469 C 212.679688 151 213.144531 151.644531 213.808594 152.058594 C 214.476562 152.472656 215.253906 152.59375 216.019531 152.414062 C 217.53125 152.039062 218.492188 150.492188 218.160156 148.96875 L 203.863281 84.898438"/><path fill="#FFF" d="M 165.402344 115.015625 L 170.578125 138.199219 L 205.507812 142.542969 L 195.175781 96.214844 L 165.402344 115.015625"/><g clip-path="url(#a)"><path fill="#FFF" d="M 235.320312 144.503906 L 224.988281 139.332031 L 227.308594 134.703125 L 237.640625 139.875 Z M 217.25 157.433594 C 216.605469 157.597656 215.957031 157.667969 215.3125 157.667969 C 213.832031 157.667969 212.378906 157.253906 211.085938 156.453125 C 209.230469 155.304688 207.949219 153.484375 207.472656 151.351562 L 206.695312 147.898438 L 168.578125 143.167969 L 166.1875 143.707031 L 170.40625 162.566406 C 170.707031 163.960938 169.839844 165.34375 168.4375 165.65625 L 157.765625 168.042969 C 157.570312 168.09375 157.390625 168.113281 157.199219 168.113281 C 156.714844 168.113281 156.230469 167.972656 155.816406 167.707031 C 155.230469 167.335938 154.828125 166.757812 154.675781 166.082031 L 150.265625 146.320312 C 147.855469 146.050781 145.515625 145.25 143.398438 143.90625 C 139.722656 141.574219 137.191406 137.957031 136.242188 133.703125 C 134.285156 124.945312 139.816406 116.226562 148.574219 114.265625 L 161.488281 111.378906 L 193.972656 90.859375 L 193.1875 87.285156 C 192.714844 85.183594 193.097656 83.019531 194.246094 81.203125 C 195.398438 79.382812 197.191406 78.128906 199.292969 77.65625 C 203.640625 76.695312 207.9375 79.433594 208.90625 83.769531 L 223.191406 147.835938 C 224.140625 152.089844 221.476562 156.394531 217.25 157.433594 Z M 135.75 77.535156 L 140.914062 77.535156 L 140.914062 82.707031 L 135.75 82.707031 Z M 146.082031 77.535156 L 151.246094 77.535156 L 151.246094 82.707031 L 146.082031 82.707031 Z M 156.410156 77.535156 L 161.578125 77.535156 L 161.578125 82.707031 L 156.410156 82.707031 Z M 221.738281 80.878906 L 225.390625 84.535156 L 217.644531 92.292969 L 213.992188 88.636719 Z M 235.472656 114.175781 L 222.125 117.15625 L 220.992188 112.105469 L 234.351562 109.125 Z M 244.230469 77.535156 C 244.230469 74.6875 241.910156 72.363281 239.0625 72.363281 L 135.75 72.363281 C 132.902344 72.363281 130.582031 74.6875 130.582031 77.535156 L 130.582031 175.8125 L 244.230469 175.8125 L 244.230469 77.535156"/></g><g clip-path="url(#b)"><path fill="#FFF" d="M 254.5625 93.050781 L 249.394531 93.050781 L 249.394531 175.8125 L 259.726562 175.8125 L 259.726562 98.222656 C 259.726562 95.375 257.40625 93.050781 254.5625 93.050781"/></g><g clip-path="url(#c)"><path fill="#FFF" d="M 115.085938 186.15625 C 115.085938 189.003906 117.40625 191.328125 120.25 191.328125 L 254.5625 191.328125 C 257.40625 191.328125 259.726562 189.003906 259.726562 186.15625 L 259.726562 180.984375 L 115.085938 180.984375 L 115.085938 186.15625"/></g><g clip-path="url(#d)"><path fill="#FFF" d="M 125.417969 93.050781 L 120.25 93.050781 C 117.40625 93.050781 115.085938 95.375 115.085938 98.222656 L 115.085938 175.8125 L 125.417969 175.8125 L 125.417969 93.050781"/></g><g clip-path="url(#e)"><path fill="#FFF" d="M 198.402344 196.5 L 176.410156 196.5 L 170.214844 217.191406 L 158.996094 217.191406 L 158.996094 222.363281 L 215.816406 222.363281 L 215.816406 217.191406 L 204.597656 217.191406 L 198.402344 196.5"/></g><g fill="#FFF"><use x="75.399" y="292.25" xmlns:xlink="http://www.w3.org/1999/xlink" xlink:href="#f" xlink:type="simple" xlink:actuate="onLoad" xlink:show="embed"/></g><g fill="#FFF"><use x="111.744" y="292.25" xmlns:xlink="http://www.w3.org/1999/xlink" xlink:href="#g" xlink:type="simple" xlink:actuate="onLoad" xlink:show="embed"/></g><g fill="#FFF"><use x="134.44" y="292.25" xmlns:xlink="http://www.w3.org/1999/xlink" xlink:href="#h" xlink:type="simple" xlink:actuate="onLoad" xlink:show="embed"/></g><g fill="#FFF"><use x="172.734" y="292.25" xmlns:xlink="http://www.w3.org/1999/xlink" xlink:href="#g" xlink:type="simple" xlink:actuate="onLoad" xlink:show="embed"/></g><g fill="#FFF"><use x="195.431" y="292.25" xmlns:xlink="http://www.w3.org/1999/xlink" xlink:href="#i" xlink:type="simple" xlink:actuate="onLoad" xlink:show="embed"/></g><g fill="#FFF"><use x="223.376" y="292.25" xmlns:xlink="http://www.w3.org/1999/xlink" xlink:href="#j" xlink:type="simple" xlink:actuate="onLoad" xlink:show="embed"/></g><g fill="#FFF"><use x="259.671" y="292.25" xmlns:xlink="http://www.w3.org/1999/xlink" xlink:href="#k" xlink:type="simple" xlink:actuate="onLoad" xlink:show="embed"/></g><g fill="#FFF"><use x="286.56" y="292.25" xmlns:xlink="http://www.w3.org/1999/xlink" xlink:href="#l" xlink:type="simple" xlink:actuate="onLoad" xlink:show="embed"/></g></svg>