<svg xmlns="http://www.w3.org/2000/svg" xmlns:xlink="http://www.w3.org/1999/xlink" width="375" viewBox="0 0 375 375" height="375" version="1.0"><defs><g id="e"><path d="M 18.398438 0.5 L 21.398438 0.648438 L 26.246094 -0.351562 L 28.996094 -1.550781 L 29.746094 -2.050781 L 30.648438 -2.601562 L 31.496094 -3.199219 L 32.148438 -3.851562 L 32.695312 -4.699219 L 33.546875 -5.347656 L 35.046875 -7.949219 L 35.496094 -8.847656 L 35.746094 -9.800781 L 36.097656 -10.800781 L 36.246094 -11.75 L 35.945312 -12.648438 L 34.695312 -13.199219 L 29.347656 -13.25 L 28.246094 -12.75 L 27.246094 -11.796875 L 26.847656 -10.949219 L 24.949219 -8.898438 L 23.246094 -8.050781 L 22.246094 -7.75 L 21.199219 -7.648438 L 18.398438 -7.699219 L 15.699219 -8.699219 L 14.75 -9.148438 L 14.097656 -9.847656 L 12.25 -12.25 L 11.847656 -13.097656 L 11.25 -15.046875 L 11.097656 -17.398438 L 11.148438 -19 L 11.5 -19.898438 L 11.550781 -20.898438 L 11.847656 -21.796875 L 12.699219 -23.597656 L 13.949219 -25.148438 L 15.597656 -26.347656 L 16.546875 -26.746094 L 18.296875 -27.246094 L 21.398438 -27.148438 L 23.296875 -26.796875 L 24.347656 -26.449219 L 25.796875 -25.246094 L 26.546875 -24.449219 L 26.996094 -23.597656 L 27.898438 -22.648438 L 28.996094 -22.199219 L 34.046875 -22.097656 L 35.046875 -22.199219 L 35.847656 -22.648438 L 36.144531 -23.699219 L 35.746094 -24.699219 L 35.597656 -25.597656 L 34.796875 -27.496094 L 32.945312 -30.046875 L 30.347656 -32.398438 L 29.246094 -33.148438 L 26.398438 -34.445312 L 24.449219 -34.996094 L 21.949219 -35.347656 L 17.398438 -35.347656 L 16.546875 -35.246094 L 15.597656 -34.945312 L 13.648438 -34.546875 L 12.699219 -34.195312 L 11.949219 -33.746094 L 11.050781 -33.398438 L 7.550781 -31.148438 L 6.949219 -30.347656 L 5.597656 -29.097656 L 5 -28.246094 L 2.699219 -23.746094 L 1.800781 -17.5 L 2 -15.898438 L 2 -13.898438 L 2.5 -11.949219 L 2.898438 -11 L 3.050781 -10.097656 L 3.550781 -9.199219 L 3.898438 -8.347656 L 5.898438 -5.449219 L 7.699219 -3.699219 L 8.550781 -3.148438 L 9.300781 -2.550781 L 12.699219 -0.699219 L 13.699219 -0.351562 L 14.449219 -0.148438 L 15.5 0.199219 L 16.546875 0.300781 L 17.449219 0.5 Z M 18.398438 0.5"/></g><g id="f"><path d="M 3.851562 -1.601562 L 4.199219 -0.5 L 5.199219 0 L 6.148438 0.0507812 L 8.199219 -0.101562 L 9.25 0 L 10.75 0 L 12.296875 -0.5 L 12.648438 -1.449219 L 12.75 -2.5 L 12.546875 -3.550781 L 12.699219 -5.699219 L 12.597656 -8.800781 L 13.046875 -9.800781 L 14.046875 -10.300781 L 14.949219 -10.300781 L 15.847656 -10.347656 L 17.097656 -9.949219 L 17.898438 -9.097656 L 19.199219 -7.347656 L 19.546875 -6.398438 L 20.949219 -3.898438 L 21.597656 -2.949219 L 22.046875 -2.101562 L 22.648438 -1.300781 L 23.648438 -0.398438 L 24.898438 -0.101562 L 26.699219 0 L 27.796875 -0.101562 L 28.796875 0 L 30.796875 0 L 31.898438 -0.101562 L 32.945312 -0.351562 L 33.148438 -1.398438 L 32.496094 -2.648438 L 30.898438 -5.097656 L 30.445312 -5.949219 L 29.847656 -6.847656 L 29.347656 -7.75 L 28.695312 -8.550781 L 27.199219 -11.148438 L 27.046875 -12.347656 L 27.597656 -13.398438 L 28.996094 -14.75 L 29.597656 -15.597656 L 29.945312 -16.546875 L 30.496094 -17.449219 L 30.847656 -18.296875 L 31.398438 -20.199219 L 31.445312 -24.148438 L 31.195312 -25.097656 L 31.046875 -26.046875 L 30.796875 -27.046875 L 29.445312 -29.796875 L 28.746094 -30.546875 L 28.296875 -31.296875 L 25.796875 -33.195312 L 24.046875 -34.097656 L 19.898438 -34.945312 L 18.648438 -35.046875 L 17.199219 -34.996094 L 16.097656 -35.046875 L 15.097656 -34.945312 L 14 -35.046875 L 13.148438 -34.945312 L 10.148438 -35.046875 L 9.199219 -34.898438 L 7.148438 -35.097656 L 6.199219 -34.945312 L 5.097656 -34.996094 L 4.148438 -34.546875 L 3.75 -33.496094 L 3.601562 -19.5 L 3.75 -18.046875 L 3.75 -15.546875 L 3.648438 -14.5 L 3.601562 -12.597656 L 3.75 -11.5 L 3.601562 -9.449219 L 3.800781 -6.550781 L 3.699219 -5.5 Z M 14.046875 -18.398438 L 13.199219 -18.847656 L 12.699219 -19.898438 L 12.546875 -25.496094 L 13.148438 -26.496094 L 14.148438 -26.996094 L 14.949219 -27.046875 L 17.699219 -26.996094 L 19.996094 -26.699219 L 21.546875 -25.746094 L 22.046875 -24.996094 L 22.398438 -24.199219 L 22.496094 -22.746094 L 22.347656 -21.398438 L 21.949219 -20.398438 L 21.398438 -19.546875 L 20.796875 -18.949219 L 20.046875 -18.597656 L 16.148438 -18.25 L 15.148438 -18.398438 Z M 14.046875 -18.398438"/></g><g id="g"><path d="M 3.601562 -1.449219 L 4.25 -0.5 L 5.199219 0.0507812 L 16.5 -0.0507812 L 17.398438 0.101562 L 20.449219 -0.0507812 L 23.496094 0.148438 L 24.449219 0.0507812 L 25.496094 -0.449219 L 25.949219 -1.398438 L 26.046875 -2.351562 L 25.996094 -5.449219 L 26.097656 -6.398438 L 25.449219 -7.398438 L 23.949219 -7.898438 L 17.347656 -8 L 16.398438 -7.847656 L 15.296875 -7.949219 L 14.199219 -7.847656 L 13.148438 -8.449219 L 12.699219 -10 L 12.75 -12.449219 L 13.199219 -13.5 L 14.097656 -14.046875 L 16.046875 -14.046875 L 17.046875 -14.148438 L 19.699219 -14 L 21.046875 -14.097656 L 22.097656 -14 L 22.996094 -14.046875 L 23.996094 -14.597656 L 24.496094 -15.546875 L 24.597656 -19.5 L 24.496094 -20.496094 L 24.046875 -21.449219 L 23.199219 -21.996094 L 21.199219 -22.046875 L 20.199219 -21.949219 L 19.148438 -21.949219 L 18 -22.046875 L 14.046875 -21.996094 L 13.199219 -22.546875 L 12.597656 -23.449219 L 12.5 -24.996094 L 13 -26.449219 L 14.546875 -26.898438 L 24.148438 -26.949219 L 25.199219 -27.496094 L 25.746094 -28.398438 L 25.648438 -30.445312 L 25.496094 -31.398438 L 25.546875 -32.496094 L 25.699219 -33.445312 L 25.199219 -34.445312 L 24.148438 -34.898438 L 20.148438 -34.945312 L 19.25 -34.847656 L 18.25 -34.996094 L 16.046875 -34.898438 L 15.046875 -34.996094 L 13.097656 -34.945312 L 12.199219 -35.046875 L 5.648438 -34.898438 L 4.199219 -34.546875 L 3.699219 -33.445312 L 3.800781 -31.445312 L 3.601562 -29.996094 L 3.800781 -27.445312 L 3.699219 -26.398438 L 3.800781 -25.496094 L 3.800781 -16.546875 L 3.648438 -15.5 L 3.800781 -13.546875 L 3.699219 -11.550781 L 3.851562 -10.5 L 3.75 -9.398438 L 3.800781 -8.449219 L 3.648438 -7.550781 L 3.75 -6.398438 L 3.75 -5.398438 L 3.851562 -3.449219 L 3.800781 -2.449219 Z M 3.601562 -1.449219"/></g><g id="h"><path d="M 0.648438 -1.351562 L 0.898438 -0.300781 L 1.898438 -0.0507812 L 6.300781 -0.0507812 L 7.597656 0.101562 L 8.75 -0.398438 L 9.648438 -1.300781 L 10.5 -3 L 11.347656 -3.949219 L 12.546875 -4.449219 L 13.546875 -4.347656 L 16.347656 -4.398438 L 17.398438 -4.25 L 18.546875 -4.398438 L 19.449219 -4.398438 L 20.496094 -4.300781 L 22.847656 -4.398438 L 24.496094 -3.851562 L 25.546875 -3.050781 L 25.796875 -2.148438 L 26.347656 -1.25 L 27.199219 -0.449219 L 28.496094 0.0507812 L 29.398438 -0.0507812 L 31.148438 0.101562 L 34.246094 0 L 35.148438 -0.300781 L 35.347656 -1.351562 L 35.046875 -2.601562 L 34.695312 -3.5 L 34.046875 -4.347656 L 33.746094 -5.347656 L 33.246094 -6.097656 L 32.945312 -7.050781 L 32.097656 -8.847656 L 31.746094 -9.800781 L 31.246094 -10.648438 L 30.546875 -12.5 L 29.996094 -13.296875 L 29.597656 -14.296875 L 29.148438 -15.148438 L 28.796875 -16.148438 L 28.347656 -16.898438 L 28.046875 -17.898438 L 27.496094 -18.796875 L 27.097656 -19.648438 L 26.597656 -20.496094 L 26.347656 -21.449219 L 25.347656 -23.199219 L 25.046875 -24.148438 L 24.148438 -26.046875 L 23.898438 -26.847656 L 23.148438 -28.597656 L 22.148438 -30.445312 L 21.347656 -32.347656 L 20.898438 -33.097656 L 20.597656 -34.046875 L 19.699219 -34.996094 L 18 -35.445312 L 16.398438 -34.945312 L 15.449219 -34.046875 L 15.148438 -33.148438 L 13 -28.648438 L 12.449219 -27.746094 L 9.648438 -21.449219 L 9.398438 -20.597656 L 8.847656 -19.699219 L 8.050781 -17.898438 L 7.300781 -16.597656 L 6.949219 -15.648438 L 6.25 -14.347656 L 5.949219 -13.296875 L 5.5 -12.5 L 5.148438 -11.5 L 3.75 -8.898438 L 2.300781 -5.25 L 1.699219 -4.449219 L 1.25 -3.449219 Z M 16.097656 -12.347656 L 15.148438 -12.75 L 15 -13.75 L 17 -18.296875 L 17.449219 -19.097656 L 18.097656 -19.597656 L 18.699219 -19.199219 L 19.347656 -17.25 L 19.898438 -16.398438 L 20.097656 -15.597656 L 20.597656 -14.597656 L 20.949219 -13.699219 L 20.847656 -12.796875 L 19.996094 -12.398438 Z M 16.097656 -12.347656"/></g><g id="i"><path d="M 9.597656 -1.550781 L 10 -0.5 L 11.050781 0 L 12 -0.101562 L 13 0 L 13.949219 -0.101562 L 17.046875 -0.101562 L 18.046875 -0.5 L 18.449219 -1.5 L 18.398438 -2.449219 L 18.5 -3.601562 L 18.449219 -5.597656 L 18.296875 -6.449219 L 18.449219 -7.5 L 18.546875 -10.550781 L 18.449219 -11.449219 L 18.597656 -13.546875 L 18.398438 -23.496094 L 18.546875 -24.496094 L 18.449219 -25.597656 L 18.847656 -26.496094 L 19.949219 -26.949219 L 20.796875 -26.996094 L 21.796875 -26.949219 L 22.699219 -27.046875 L 25.449219 -26.996094 L 26.597656 -27.445312 L 27.097656 -28.445312 L 26.996094 -29.496094 L 27.097656 -33.597656 L 26.597656 -34.597656 L 25.597656 -35.097656 L 24.398438 -34.996094 L 23.597656 -35.097656 L 22.648438 -35.097656 L 21.546875 -34.945312 L 20.546875 -34.945312 L 19.546875 -35.046875 L 18.546875 -35.046875 L 17.398438 -34.898438 L 2.5 -34.996094 L 1.398438 -34.496094 L 0.898438 -33.496094 L 0.851562 -28.496094 L 1.398438 -27.398438 L 2.398438 -26.898438 L 3.699219 -27.046875 L 8.148438 -26.996094 L 9.050781 -26.449219 L 9.550781 -25.496094 L 9.699219 -19.996094 L 9.550781 -18.449219 L 9.648438 -17.5 L 9.550781 -16.5 L 9.550781 -14.5 L 9.699219 -13.046875 L 9.5 -11.550781 L 9.550781 -10.550781 L 9.5 -9.5 L 9.648438 -6.449219 L 9.550781 -5.449219 Z M 9.597656 -1.550781"/></g><g id="j"><path d="M 2.398438 -1.449219 L 2.898438 -0.398438 L 3.898438 -0.0507812 L 18.75 0.0507812 L 19.699219 -0.449219 L 20.246094 -1.351562 L 20.246094 -2.449219 L 20.148438 -3.351562 L 20.296875 -6.398438 L 19.597656 -7.25 L 16.25 -8.300781 L 15.699219 -9.300781 L 15.796875 -13.398438 L 15.597656 -15.398438 L 15.796875 -17.5 L 15.699219 -19 L 15.796875 -20.546875 L 15.699219 -21.496094 L 15.796875 -22.496094 L 15.699219 -23.546875 L 15.699219 -25.648438 L 16.25 -26.546875 L 17.199219 -27.097656 L 18.296875 -27.148438 L 19.25 -27.695312 L 19.796875 -28.648438 L 19.796875 -31.597656 L 19.898438 -32.496094 L 19.796875 -33.496094 L 19.398438 -34.496094 L 17.796875 -34.945312 L 11.449219 -34.996094 L 10.347656 -34.898438 L 7.300781 -34.945312 L 6.347656 -34.898438 L 4.398438 -34.996094 L 3.300781 -34.496094 L 2.75 -33.445312 L 2.75 -32.496094 L 2.648438 -31.648438 L 2.648438 -30.546875 L 2.75 -29.546875 L 2.75 -28.597656 L 3.25 -27.648438 L 6.300781 -26.597656 L 6.949219 -25.699219 L 6.800781 -21.449219 L 6.847656 -20.597656 L 7 -19.449219 L 6.949219 -17.398438 L 6.847656 -16.398438 L 7.050781 -14.449219 L 6.800781 -13.449219 L 7 -11.300781 L 6.898438 -9.347656 L 6.398438 -8.25 L 3.101562 -7.199219 L 2.5 -6.25 L 2.398438 -5.300781 Z M 2.398438 -1.449219"/></g><g id="k"><path d="M 14.097656 -0.898438 L 14.898438 0 L 16.097656 0.449219 L 17.097656 0.550781 L 18.449219 -0.0507812 L 19.296875 -0.851562 L 19.597656 -1.800781 L 20.449219 -3.75 L 20.898438 -4.699219 L 21.398438 -5.550781 L 22.199219 -7.347656 L 22.496094 -8.25 L 25.496094 -14.648438 L 26.097656 -16.597656 L 27.148438 -18.398438 L 27.695312 -20.296875 L 28.246094 -21.296875 L 28.496094 -22.148438 L 28.746094 -23.097656 L 29.445312 -23.996094 L 29.695312 -24.949219 L 30.347656 -25.699219 L 31.097656 -27.648438 L 31.347656 -28.546875 L 31.898438 -29.398438 L 32.246094 -30.398438 L 32.746094 -31.347656 L 32.945312 -32.195312 L 33.445312 -33.398438 L 33.148438 -34.648438 L 32.296875 -34.945312 L 26.398438 -34.945312 L 25.246094 -34.546875 L 24.347656 -33.597656 L 24.097656 -32.695312 L 18.148438 -18.046875 L 17.648438 -17.097656 L 17.398438 -16.199219 L 16.796875 -15.296875 L 16.199219 -15.199219 L 15.796875 -16.097656 L 15.148438 -18 L 14.75 -18.898438 L 14.449219 -19.898438 L 14.097656 -20.699219 L 13.546875 -21.597656 L 12.949219 -23.597656 L 12.5 -24.398438 L 12.148438 -25.296875 L 11.949219 -26.296875 L 10.199219 -29.898438 L 10.050781 -30.847656 L 9.550781 -31.796875 L 9.199219 -32.695312 L 8.75 -33.496094 L 7.898438 -34.496094 L 6.75 -34.898438 L 3.949219 -35.046875 L 3.101562 -34.945312 L 2.199219 -35.046875 L 1.148438 -34.996094 L 0.101562 -34.546875 L 0 -33.445312 L 0.199219 -32.246094 L 0.648438 -31.347656 L 1.398438 -29.445312 L 1.851562 -28.546875 L 2.148438 -27.648438 L 2.699219 -26.699219 L 3.5 -24.746094 L 4 -23.847656 L 5.5 -20.199219 L 6 -19.398438 L 9.300781 -11.949219 L 9.550781 -11.097656 L 10.398438 -9.300781 L 10.699219 -8.347656 L 12 -5.449219 L 12.5 -4.699219 L 12.75 -3.648438 Z M 14.097656 -0.898438"/></g><clipPath id="a"><path d="M 171 206 L 207 206 L 207 216.628906 L 171 216.628906 Z M 171 206"/></clipPath><clipPath id="b"><path d="M 187 66.628906 L 191 66.628906 L 191 86 L 187 86 Z M 187 66.628906"/></clipPath><clipPath id="c"><path d="M 229 135 L 249.816406 135 L 249.816406 139 L 229 139 Z M 229 135"/></clipPath><clipPath id="d"><path d="M 125.316406 135 L 146 135 L 146 139 L 125.316406 139 Z M 125.316406 135"/></clipPath></defs><path fill="#FFF" d="M-37.5 -37.5H412.5V412.5H-37.5z"/><path fill="#FFF" d="M-37.5 -37.5H412.5V412.5H-37.5z"/><path fill="#FFF" d="M-37.5 -37.5H412.5V412.5H-37.5z"/><path fill="#71C1E8" d="M 9.195312 9.296875 L 366.1875 9.296875 L 366.1875 362.546875 L 9.195312 362.546875 Z M 9.195312 9.296875"/><path fill="#FFF" d="M 227.644531 132.480469 C 227.644531 110.609375 209.644531 92.953125 187.640625 93.472656 C 166.351562 93.976562 149.238281 111.746094 149.523438 133.015625 C 149.675781 144.257812 154.589844 154.347656 162.335938 161.367188 C 168.570312 167.019531 172.269531 174.933594 172.269531 183.339844 L 172.269531 192.238281 L 204.898438 192.238281 L 204.898438 183.589844 C 204.898438 175.054688 208.628906 167.023438 214.933594 161.269531 C 222.746094 154.136719 227.644531 143.878906 227.644531 132.480469"/><path fill="#7BD4F6" d="M 227.644531 132.480469 L 229.085938 132.480469 C 229.085938 110.128906 210.957031 92.019531 188.582031 92.019531 C 188.257812 92.019531 187.925781 92.023438 187.601562 92.03125 C 176.652344 92.289062 166.765625 96.953125 159.628906 104.273438 C 152.488281 111.585938 148.082031 121.578125 148.082031 132.484375 L 148.082031 133.039062 L 148.082031 133.03125 C 148.238281 144.6875 153.335938 155.160156 161.371094 162.433594 C 167.316406 167.828125 170.820312 175.355469 170.820312 183.339844 L 170.820312 192.238281 C 170.820312 192.621094 170.972656 192.992188 171.246094 193.261719 C 171.515625 193.527344 171.886719 193.679688 172.269531 193.679688 L 204.898438 193.679688 C 205.28125 193.679688 205.652344 193.527344 205.917969 193.261719 C 206.1875 192.992188 206.339844 192.621094 206.339844 192.238281 L 206.339844 183.589844 C 206.339844 175.480469 209.890625 167.828125 215.90625 162.332031 C 224 154.941406 229.085938 144.296875 229.085938 132.480469 L 226.203125 132.480469 C 226.203125 143.464844 221.488281 153.328125 213.957031 160.203125 C 207.378906 166.21875 203.457031 174.632812 203.457031 183.589844 L 203.457031 190.796875 L 173.710938 190.796875 L 173.710938 183.339844 C 173.710938 174.503906 169.832031 166.207031 163.308594 160.296875 C 155.84375 153.53125 151.113281 143.820312 150.964844 132.996094 L 150.964844 132.484375 C 150.964844 122.367188 155.054688 113.09375 161.695312 106.285156 C 168.335938 99.480469 177.507812 95.152344 187.667969 94.910156 C 187.972656 94.90625 188.28125 94.898438 188.582031 94.898438 C 198.976562 94.90625 208.371094 99.105469 215.183594 105.90625 C 221.992188 112.710938 226.203125 122.09375 226.203125 132.480469 L 227.644531 132.480469"/><path fill="#FFF" d="M 227.644531 132.480469 C 227.644531 110.609375 209.644531 92.953125 187.640625 93.472656 C 166.351562 93.976562 149.238281 111.746094 149.523438 133.015625 C 149.675781 144.257812 154.589844 154.347656 162.335938 161.367188 C 168.570312 167.019531 172.269531 174.933594 172.269531 183.339844 L 172.269531 192.238281 L 204.898438 192.238281 L 204.898438 183.589844 C 204.898438 175.054688 208.628906 167.023438 214.933594 161.269531 C 222.746094 154.136719 227.644531 143.878906 227.644531 132.480469"/><path fill="#7BD4F6" d="M 227.644531 132.480469 L 229.085938 132.480469 C 229.085938 110.128906 210.957031 92.019531 188.582031 92.019531 C 188.257812 92.019531 187.925781 92.023438 187.601562 92.03125 C 176.652344 92.289062 166.765625 96.953125 159.628906 104.273438 C 152.488281 111.585938 148.082031 121.578125 148.082031 132.484375 L 148.082031 133.039062 L 148.082031 133.03125 C 148.238281 144.6875 153.335938 155.160156 161.371094 162.433594 C 167.316406 167.828125 170.820312 175.355469 170.820312 183.339844 L 170.820312 192.238281 C 170.820312 192.621094 170.972656 192.992188 171.246094 193.261719 C 171.515625 193.527344 171.886719 193.679688 172.269531 193.679688 L 204.898438 193.679688 C 205.28125 193.679688 205.652344 193.527344 205.917969 193.261719 C 206.1875 192.992188 206.339844 192.621094 206.339844 192.238281 L 206.339844 183.589844 C 206.339844 175.480469 209.890625 167.828125 215.90625 162.332031 C 224 154.941406 229.085938 144.296875 229.085938 132.480469 L 226.203125 132.480469 C 226.203125 143.464844 221.488281 153.328125 213.957031 160.203125 C 207.378906 166.21875 203.457031 174.632812 203.457031 183.589844 L 203.457031 190.796875 L 173.710938 190.796875 L 173.710938 183.339844 C 173.710938 174.503906 169.832031 166.207031 163.308594 160.296875 C 155.84375 153.53125 151.113281 143.820312 150.964844 132.996094 L 150.964844 132.484375 C 150.964844 122.367188 155.054688 113.09375 161.695312 106.285156 C 168.335938 99.480469 177.507812 95.152344 187.667969 94.910156 C 187.972656 94.90625 188.28125 94.898438 188.582031 94.898438 C 198.976562 94.90625 208.371094 99.105469 215.183594 105.90625 C 221.992188 112.710938 226.203125 122.09375 226.203125 132.480469 L 227.644531 132.480469"/><path fill="#FFF" d="M 193.761719 190.796875 L 173.710938 190.796875 L 173.710938 183.339844 C 173.710938 174.503906 169.832031 166.207031 163.308594 160.296875 C 155.84375 153.53125 151.113281 143.820312 150.964844 132.996094 L 150.964844 132.484375 C 150.964844 122.367188 155.054688 113.09375 161.695312 106.285156 C 168.335938 99.480469 177.507812 95.152344 187.667969 94.910156 C 187.972656 94.90625 188.28125 94.898438 188.582031 94.898438 C 189.074219 94.898438 189.570312 94.910156 190.0625 94.929688 C 186.574219 109.941406 184.019531 125.175781 183.582031 140.570312 C 183.09375 157.867188 185.648438 175.578125 193.761719 190.796875"/><path fill="#71C1E8" d="M 194.550781 192.238281 L 172.269531 192.238281 L 172.269531 183.339844 C 172.269531 174.933594 168.570312 167.019531 162.335938 161.367188 C 154.589844 154.347656 149.675781 144.257812 149.523438 133.015625 C 149.238281 111.746094 166.351562 93.976562 187.640625 93.472656 C 187.886719 93.464844 188.132812 93.464844 188.378906 93.464844 C 189.058594 93.464844 189.730469 93.484375 190.394531 93.511719 C 190.289062 93.980469 190.171875 94.457031 190.0625 94.929688 C 189.570312 94.910156 189.074219 94.898438 188.582031 94.898438 C 188.28125 94.898438 187.972656 94.90625 187.667969 94.910156 C 177.507812 95.152344 168.335938 99.480469 161.695312 106.285156 C 155.054688 113.09375 150.964844 122.367188 150.964844 132.484375 L 150.964844 132.996094 C 151.113281 143.820312 155.84375 153.53125 163.308594 160.296875 C 169.832031 166.207031 173.710938 174.503906 173.710938 183.339844 L 173.710938 190.796875 L 193.761719 190.796875 C 194.019531 191.28125 194.277344 191.761719 194.550781 192.238281"/><path fill="#7BD4F6" d="M 183.777344 191.960938 L 174.625 145.609375 C 174.492188 144.960938 173.863281 144.539062 173.214844 144.667969 C 172.570312 144.796875 172.144531 145.425781 172.273438 146.074219 L 181.433594 192.425781 C 181.558594 193.074219 182.1875 193.496094 182.835938 193.367188 C 183.484375 193.238281 183.90625 192.609375 183.777344 191.960938"/><path fill="#7BD4F6" d="M 196.175781 192.425781 L 205.328125 146.074219 C 205.457031 145.425781 205.035156 144.796875 204.386719 144.667969 C 203.738281 144.539062 203.109375 144.960938 202.984375 145.609375 L 193.824219 191.960938 C 193.695312 192.609375 194.121094 193.238281 194.769531 193.367188 C 195.414062 193.496094 196.046875 193.074219 196.175781 192.425781"/><path fill="#FFF" d="M 204.722656 208.3125 L 172.34375 208.3125 L 172.214844 192.238281 L 204.851562 192.238281 L 204.722656 208.3125"/><path fill="#7BD4F6" d="M 204.722656 208.3125 L 204.722656 206.875 L 173.777344 206.875 L 173.667969 193.679688 L 203.398438 193.679688 L 203.28125 208.300781 L 204.722656 208.3125 L 204.722656 206.875 L 204.722656 208.3125 L 206.164062 208.324219 L 206.292969 192.25 C 206.300781 191.867188 206.148438 191.496094 205.875 191.222656 C 205.605469 190.949219 205.234375 190.796875 204.851562 190.796875 L 172.214844 190.796875 C 171.832031 190.796875 171.460938 190.949219 171.191406 191.222656 C 170.921875 191.496094 170.773438 191.867188 170.773438 192.25 L 170.902344 208.324219 C 170.910156 209.121094 171.554688 209.753906 172.34375 209.753906 L 204.722656 209.753906 C 205.515625 209.753906 206.160156 209.121094 206.164062 208.324219 L 204.722656 208.3125"/><path fill="#FFF" d="M 172.464844 208.378906 C 173.316406 212.359375 176.84375 215.207031 180.917969 215.207031 L 196.152344 215.207031 C 200.230469 215.207031 203.75 212.359375 204.605469 208.378906 L 172.464844 208.378906"/><g clip-path="url(#a)"><path fill="#7BD4F6" d="M 172.464844 208.378906 L 171.054688 208.679688 C 172.050781 213.324219 176.160156 216.644531 180.917969 216.644531 L 196.152344 216.644531 C 200.914062 216.644531 205.023438 213.324219 206.015625 208.679688 C 206.105469 208.253906 206 207.8125 205.730469 207.472656 C 205.453125 207.132812 205.046875 206.9375 204.605469 206.9375 L 172.464844 206.9375 C 172.027344 206.9375 171.613281 207.132812 171.34375 207.472656 C 171.066406 207.8125 170.960938 208.253906 171.054688 208.679688 L 172.464844 208.378906 L 172.464844 209.820312 L 204.605469 209.820312 L 204.605469 208.378906 L 203.199219 208.078125 C 202.484375 211.394531 199.546875 213.765625 196.152344 213.765625 L 180.917969 213.765625 C 177.519531 213.765625 174.582031 211.394531 173.875 208.078125 L 172.464844 208.378906 L 172.464844 209.820312 L 172.464844 208.378906"/></g><path fill="#7BD4F6" d="M 176.011719 155.050781 L 182.429688 147.785156 L 187.785156 155.605469 C 187.996094 155.917969 188.339844 156.105469 188.714844 156.121094 C 189.085938 156.140625 189.445312 155.988281 189.6875 155.699219 L 196.363281 147.785156 L 201.519531 154.957031 C 201.90625 155.492188 202.65625 155.617188 203.191406 155.234375 C 203.734375 154.847656 203.851562 154.101562 203.46875 153.566406 L 197.410156 145.144531 C 197.191406 144.84375 196.851562 144.664062 196.480469 144.644531 C 196.117188 144.632812 195.757812 144.792969 195.519531 145.074219 L 188.867188 152.960938 L 183.535156 145.167969 C 183.328125 144.863281 182.988281 144.667969 182.625 144.644531 C 182.253906 144.628906 181.894531 144.773438 181.652344 145.050781 L 174.210938 153.472656 C 173.777344 153.964844 173.824219 154.722656 174.316406 155.160156 C 174.816406 155.59375 175.570312 155.546875 176.011719 155.050781"/><g clip-path="url(#b)"><path fill="#7BD4F6" d="M 190.78125 84.121094 L 190.78125 68.109375 C 190.78125 67.304688 190.128906 66.652344 189.316406 66.652344 C 188.511719 66.652344 187.855469 67.304688 187.855469 68.109375 L 187.855469 84.121094 C 187.855469 84.925781 188.511719 85.578125 189.316406 85.578125 C 190.128906 85.578125 190.78125 84.925781 190.78125 84.121094"/></g><path fill="#7BD4F6" d="M 210.515625 87.789062 L 220.304688 75.117188 C 220.796875 74.476562 220.675781 73.558594 220.039062 73.070312 C 219.402344 72.574219 218.484375 72.695312 217.992188 73.332031 L 208.199219 86.007812 C 207.707031 86.648438 207.832031 87.566406 208.464844 88.0625 C 209.109375 88.550781 210.027344 88.433594 210.515625 87.789062"/><path fill="#7BD4F6" d="M 172.214844 86.007812 L 162.433594 73.332031 C 161.9375 72.695312 161.019531 72.574219 160.378906 73.070312 C 159.742188 73.558594 159.625 74.476562 160.117188 75.117188 L 169.902344 87.789062 C 170.398438 88.433594 171.316406 88.550781 171.949219 88.0625 C 172.59375 87.566406 172.710938 86.648438 172.214844 86.007812"/><path fill="#7BD4F6" d="M 224.738281 102.308594 L 238.09375 95.195312 C 238.804688 94.8125 239.070312 93.929688 238.695312 93.21875 C 238.316406 92.507812 237.429688 92.234375 236.714844 92.617188 L 223.359375 99.734375 C 222.648438 100.117188 222.382812 100.996094 222.757812 101.707031 C 223.136719 102.421875 224.023438 102.683594 224.738281 102.308594"/><path fill="#7BD4F6" d="M 157.058594 97.0625 L 143.699219 89.949219 C 142.992188 89.574219 142.105469 89.835938 141.726562 90.546875 C 141.347656 91.261719 141.617188 92.140625 142.328125 92.523438 L 155.6875 99.640625 C 156.398438 100.019531 157.28125 99.75 157.65625 99.039062 C 158.039062 98.328125 157.769531 97.445312 157.058594 97.0625"/><path fill="#7BD4F6" d="M 230.453125 120.261719 L 245.585938 118.480469 C 246.386719 118.382812 246.964844 117.660156 246.871094 116.863281 C 246.777344 116.0625 246.050781 115.484375 245.25 115.578125 L 230.109375 117.363281 C 229.3125 117.457031 228.738281 118.179688 228.828125 118.976562 C 228.921875 119.777344 229.652344 120.355469 230.453125 120.261719"/><path fill="#7BD4F6" d="M 145.855469 115.578125 L 130.71875 113.804688 C 129.917969 113.710938 129.191406 114.28125 129.09375 115.078125 C 129 115.886719 129.578125 116.609375 130.378906 116.703125 L 145.511719 118.480469 C 146.3125 118.574219 147.042969 118.003906 147.136719 117.203125 C 147.234375 116.402344 146.660156 115.675781 145.855469 115.578125"/><g clip-path="url(#c)"><path fill="#7BD4F6" d="M 231.171875 138.058594 L 248.089844 138.058594 C 248.894531 138.058594 249.554688 137.40625 249.554688 136.601562 C 249.554688 135.796875 248.894531 135.144531 248.089844 135.144531 L 231.171875 135.144531 C 230.363281 135.144531 229.710938 135.796875 229.710938 136.601562 C 229.710938 137.40625 230.363281 138.058594 231.171875 138.058594"/></g><g clip-path="url(#d)"><path fill="#7BD4F6" d="M 126.988281 138.058594 L 143.90625 138.058594 C 144.714844 138.058594 145.367188 137.40625 145.367188 136.601562 C 145.367188 135.796875 144.714844 135.144531 143.90625 135.144531 L 126.988281 135.144531 C 126.183594 135.144531 125.523438 135.796875 125.523438 136.601562 C 125.523438 137.40625 126.183594 138.058594 126.988281 138.058594"/></g><path fill="#7BD4F6" d="M 173.351562 201.882812 L 193.367188 201.882812 C 194.179688 201.882812 194.839844 201.222656 194.839844 200.410156 C 194.839844 199.601562 194.179688 198.941406 193.367188 198.941406 L 173.351562 198.941406 C 172.539062 198.941406 171.878906 199.601562 171.878906 200.410156 C 171.878906 201.222656 172.539062 201.882812 173.351562 201.882812"/><g fill="#FFF"><use x="62.392" y="292.25" xmlns:xlink="http://www.w3.org/1999/xlink" xlink:href="#e" xlink:type="simple" xlink:actuate="onLoad" xlink:show="embed"/></g><g fill="#FFF"><use x="100.536" y="292.25" xmlns:xlink="http://www.w3.org/1999/xlink" xlink:href="#f" xlink:type="simple" xlink:actuate="onLoad" xlink:show="embed"/></g><g fill="#FFF"><use x="135.18" y="292.25" xmlns:xlink="http://www.w3.org/1999/xlink" xlink:href="#g" xlink:type="simple" xlink:actuate="onLoad" xlink:show="embed"/></g><g fill="#FFF"><use x="163.826" y="292.25" xmlns:xlink="http://www.w3.org/1999/xlink" xlink:href="#h" xlink:type="simple" xlink:actuate="onLoad" xlink:show="embed"/></g><g fill="#FFF"><use x="200.12" y="292.25" xmlns:xlink="http://www.w3.org/1999/xlink" xlink:href="#i" xlink:type="simple" xlink:actuate="onLoad" xlink:show="embed"/></g><g fill="#FFF"><use x="228.066" y="292.25" xmlns:xlink="http://www.w3.org/1999/xlink" xlink:href="#j" xlink:type="simple" xlink:actuate="onLoad" xlink:show="embed"/></g><g fill="#FFF"><use x="250.762" y="292.25" xmlns:xlink="http://www.w3.org/1999/xlink" xlink:href="#k" xlink:type="simple" xlink:actuate="onLoad" xlink:show="embed"/></g><g fill="#FFF"><use x="284.457" y="292.25" xmlns:xlink="http://www.w3.org/1999/xlink" xlink:href="#g" xlink:type="simple" xlink:actuate="onLoad" xlink:show="embed"/></g></svg>