<svg xmlns="http://www.w3.org/2000/svg" xmlns:xlink="http://www.w3.org/1999/xlink" width="375" viewBox="0 0 375 375" height="375" version="1.0"><defs><g id="d"><path d="M 13.449219 0.449219 L 17.398438 0.550781 L 18.398438 0.449219 L 19.398438 0.199219 L 20.398438 0.0507812 L 21.398438 -0.351562 L 22.296875 -0.449219 L 23.246094 -0.898438 L 26.648438 -2.949219 L 28.097656 -4.449219 L 28.597656 -5.148438 L 29.148438 -6.25 L 29.445312 -7.148438 L 29.746094 -8 L 30.046875 -10.5 L 29.945312 -12.097656 L 29.195312 -15 L 28.648438 -15.796875 L 27.347656 -17.296875 L 26.449219 -18.097656 L 25.648438 -18.5 L 24.746094 -19.046875 L 20.847656 -20.246094 L 19.847656 -20.398438 L 18.847656 -20.449219 L 17.796875 -20.648438 L 16.347656 -20.648438 L 13.699219 -21.199219 L 11.847656 -22.097656 L 11.097656 -22.796875 L 10.898438 -24.296875 L 11.148438 -25.648438 L 11.75 -26.296875 L 12.5 -26.847656 L 13.296875 -27.296875 L 14.199219 -27.496094 L 15.796875 -27.546875 L 17.398438 -27.347656 L 18.296875 -27.097656 L 19.199219 -26.496094 L 20.046875 -25.796875 L 20.796875 -24.796875 L 21.898438 -24.148438 L 24.246094 -24.347656 L 25.597656 -24.246094 L 26.597656 -24.246094 L 27.496094 -24.148438 L 28.445312 -24.847656 L 28.847656 -25.699219 L 28.648438 -26.648438 L 28.546875 -27.597656 L 27.148438 -30.195312 L 26.046875 -31.695312 L 22.746094 -33.996094 L 19.949219 -34.945312 L 18 -35.347656 L 14.148438 -35.445312 L 13.046875 -35.148438 L 12.046875 -35.097656 L 11.148438 -34.945312 L 9.25 -34.347656 L 7.550781 -33.347656 L 5.148438 -31.695312 L 3.398438 -29.347656 L 2.5 -26.597656 L 2.351562 -24.148438 L 2.398438 -22.597656 L 2.75 -20.597656 L 3.550781 -18.847656 L 5.398438 -16.546875 L 8.800781 -14.699219 L 10.597656 -14.097656 L 18.449219 -13.199219 L 20.246094 -12.347656 L 20.898438 -11.75 L 21.199219 -10.5 L 20.796875 -9.25 L 20.148438 -8.5 L 18.449219 -7.75 L 16.898438 -7.648438 L 16 -7.5 L 13.449219 -7.75 L 12.597656 -8.199219 L 11.75 -8.75 L 10.097656 -10.550781 L 9.097656 -10.949219 L 8.199219 -10.847656 L 7.25 -11 L 3.398438 -10.800781 L 2.5 -10.398438 L 2.101562 -9.347656 L 2.25 -8.347656 L 2.449219 -7.347656 L 2.75 -6.449219 L 3.699219 -4.597656 L 4.398438 -3.949219 L 5.050781 -3.199219 L 6.800781 -2.101562 L 7.5 -1.351562 L 8.449219 -0.898438 L 9.449219 -0.601562 L 11.398438 0.101562 Z M 13.449219 0.449219"/></g><g id="e"><path d="M 9.597656 -1.550781 L 10 -0.5 L 11.050781 0 L 12 -0.101562 L 13 0 L 13.949219 -0.101562 L 17.046875 -0.101562 L 18.046875 -0.5 L 18.449219 -1.5 L 18.398438 -2.449219 L 18.5 -3.601562 L 18.449219 -5.597656 L 18.296875 -6.449219 L 18.449219 -7.5 L 18.546875 -10.550781 L 18.449219 -11.449219 L 18.597656 -13.546875 L 18.398438 -23.496094 L 18.546875 -24.496094 L 18.449219 -25.597656 L 18.847656 -26.496094 L 19.949219 -26.949219 L 20.796875 -26.996094 L 21.796875 -26.949219 L 22.699219 -27.046875 L 25.449219 -26.996094 L 26.597656 -27.445312 L 27.097656 -28.445312 L 26.996094 -29.496094 L 27.097656 -33.597656 L 26.597656 -34.597656 L 25.597656 -35.097656 L 24.398438 -34.996094 L 23.597656 -35.097656 L 22.648438 -35.097656 L 21.546875 -34.945312 L 20.546875 -34.945312 L 19.546875 -35.046875 L 18.546875 -35.046875 L 17.398438 -34.898438 L 2.5 -34.996094 L 1.398438 -34.496094 L 0.898438 -33.496094 L 0.851562 -28.496094 L 1.398438 -27.398438 L 2.398438 -26.898438 L 3.699219 -27.046875 L 8.148438 -26.996094 L 9.050781 -26.449219 L 9.550781 -25.496094 L 9.699219 -19.996094 L 9.550781 -18.449219 L 9.648438 -17.5 L 9.550781 -16.5 L 9.550781 -14.5 L 9.699219 -13.046875 L 9.5 -11.550781 L 9.550781 -10.550781 L 9.5 -9.5 L 9.648438 -6.449219 L 9.550781 -5.449219 Z M 9.597656 -1.550781"/></g><g id="f"><path d="M 3.851562 -1.601562 L 4.199219 -0.5 L 5.199219 0 L 6.148438 0.0507812 L 8.199219 -0.101562 L 9.25 0 L 10.75 0 L 12.296875 -0.5 L 12.648438 -1.449219 L 12.75 -2.5 L 12.546875 -3.550781 L 12.699219 -5.699219 L 12.597656 -8.800781 L 13.046875 -9.800781 L 14.046875 -10.300781 L 14.949219 -10.300781 L 15.847656 -10.347656 L 17.097656 -9.949219 L 17.898438 -9.097656 L 19.199219 -7.347656 L 19.546875 -6.398438 L 20.949219 -3.898438 L 21.597656 -2.949219 L 22.046875 -2.101562 L 22.648438 -1.300781 L 23.648438 -0.398438 L 24.898438 -0.101562 L 26.699219 0 L 27.796875 -0.101562 L 28.796875 0 L 30.796875 0 L 31.898438 -0.101562 L 32.945312 -0.351562 L 33.148438 -1.398438 L 32.496094 -2.648438 L 30.898438 -5.097656 L 30.445312 -5.949219 L 29.847656 -6.847656 L 29.347656 -7.75 L 28.695312 -8.550781 L 27.199219 -11.148438 L 27.046875 -12.347656 L 27.597656 -13.398438 L 28.996094 -14.75 L 29.597656 -15.597656 L 29.945312 -16.546875 L 30.496094 -17.449219 L 30.847656 -18.296875 L 31.398438 -20.199219 L 31.445312 -24.148438 L 31.195312 -25.097656 L 31.046875 -26.046875 L 30.796875 -27.046875 L 29.445312 -29.796875 L 28.746094 -30.546875 L 28.296875 -31.296875 L 25.796875 -33.195312 L 24.046875 -34.097656 L 19.898438 -34.945312 L 18.648438 -35.046875 L 17.199219 -34.996094 L 16.097656 -35.046875 L 15.097656 -34.945312 L 14 -35.046875 L 13.148438 -34.945312 L 10.148438 -35.046875 L 9.199219 -34.898438 L 7.148438 -35.097656 L 6.199219 -34.945312 L 5.097656 -34.996094 L 4.148438 -34.546875 L 3.75 -33.496094 L 3.601562 -19.5 L 3.75 -18.046875 L 3.75 -15.546875 L 3.648438 -14.5 L 3.601562 -12.597656 L 3.75 -11.5 L 3.601562 -9.449219 L 3.800781 -6.550781 L 3.699219 -5.5 Z M 14.046875 -18.398438 L 13.199219 -18.847656 L 12.699219 -19.898438 L 12.546875 -25.496094 L 13.148438 -26.496094 L 14.148438 -26.996094 L 14.949219 -27.046875 L 17.699219 -26.996094 L 19.996094 -26.699219 L 21.546875 -25.746094 L 22.046875 -24.996094 L 22.398438 -24.199219 L 22.496094 -22.746094 L 22.347656 -21.398438 L 21.949219 -20.398438 L 21.398438 -19.546875 L 20.796875 -18.949219 L 20.046875 -18.597656 L 16.148438 -18.25 L 15.148438 -18.398438 Z M 14.046875 -18.398438"/></g><g id="g"><path d="M 0.648438 -1.351562 L 0.898438 -0.300781 L 1.898438 -0.0507812 L 6.300781 -0.0507812 L 7.597656 0.101562 L 8.75 -0.398438 L 9.648438 -1.300781 L 10.5 -3 L 11.347656 -3.949219 L 12.546875 -4.449219 L 13.546875 -4.347656 L 16.347656 -4.398438 L 17.398438 -4.25 L 18.546875 -4.398438 L 19.449219 -4.398438 L 20.496094 -4.300781 L 22.847656 -4.398438 L 24.496094 -3.851562 L 25.546875 -3.050781 L 25.796875 -2.148438 L 26.347656 -1.25 L 27.199219 -0.449219 L 28.496094 0.0507812 L 29.398438 -0.0507812 L 31.148438 0.101562 L 34.246094 0 L 35.148438 -0.300781 L 35.347656 -1.351562 L 35.046875 -2.601562 L 34.695312 -3.5 L 34.046875 -4.347656 L 33.746094 -5.347656 L 33.246094 -6.097656 L 32.945312 -7.050781 L 32.097656 -8.847656 L 31.746094 -9.800781 L 31.246094 -10.648438 L 30.546875 -12.5 L 29.996094 -13.296875 L 29.597656 -14.296875 L 29.148438 -15.148438 L 28.796875 -16.148438 L 28.347656 -16.898438 L 28.046875 -17.898438 L 27.496094 -18.796875 L 27.097656 -19.648438 L 26.597656 -20.496094 L 26.347656 -21.449219 L 25.347656 -23.199219 L 25.046875 -24.148438 L 24.148438 -26.046875 L 23.898438 -26.847656 L 23.148438 -28.597656 L 22.148438 -30.445312 L 21.347656 -32.347656 L 20.898438 -33.097656 L 20.597656 -34.046875 L 19.699219 -34.996094 L 18 -35.445312 L 16.398438 -34.945312 L 15.449219 -34.046875 L 15.148438 -33.148438 L 13 -28.648438 L 12.449219 -27.746094 L 9.648438 -21.449219 L 9.398438 -20.597656 L 8.847656 -19.699219 L 8.050781 -17.898438 L 7.300781 -16.597656 L 6.949219 -15.648438 L 6.25 -14.347656 L 5.949219 -13.296875 L 5.5 -12.5 L 5.148438 -11.5 L 3.75 -8.898438 L 2.300781 -5.25 L 1.699219 -4.449219 L 1.25 -3.449219 Z M 16.097656 -12.347656 L 15.148438 -12.75 L 15 -13.75 L 17 -18.296875 L 17.449219 -19.097656 L 18.097656 -19.597656 L 18.699219 -19.199219 L 19.347656 -17.25 L 19.898438 -16.398438 L 20.097656 -15.597656 L 20.597656 -14.597656 L 20.949219 -13.699219 L 20.847656 -12.796875 L 19.996094 -12.398438 Z M 16.097656 -12.347656"/></g><g id="h"><path d="M 3.601562 -1.449219 L 4.25 -0.5 L 5.199219 0.0507812 L 16.5 -0.0507812 L 17.398438 0.101562 L 20.449219 -0.0507812 L 23.496094 0.148438 L 24.449219 0.0507812 L 25.496094 -0.449219 L 25.949219 -1.398438 L 26.046875 -2.351562 L 25.996094 -5.449219 L 26.097656 -6.398438 L 25.449219 -7.398438 L 23.949219 -7.898438 L 17.347656 -8 L 16.398438 -7.847656 L 15.296875 -7.949219 L 14.199219 -7.847656 L 13.148438 -8.449219 L 12.699219 -10 L 12.75 -12.449219 L 13.199219 -13.5 L 14.097656 -14.046875 L 16.046875 -14.046875 L 17.046875 -14.148438 L 19.699219 -14 L 21.046875 -14.097656 L 22.097656 -14 L 22.996094 -14.046875 L 23.996094 -14.597656 L 24.496094 -15.546875 L 24.597656 -19.5 L 24.496094 -20.496094 L 24.046875 -21.449219 L 23.199219 -21.996094 L 21.199219 -22.046875 L 20.199219 -21.949219 L 19.148438 -21.949219 L 18 -22.046875 L 14.046875 -21.996094 L 13.199219 -22.546875 L 12.597656 -23.449219 L 12.5 -24.996094 L 13 -26.449219 L 14.546875 -26.898438 L 24.148438 -26.949219 L 25.199219 -27.496094 L 25.746094 -28.398438 L 25.648438 -30.445312 L 25.496094 -31.398438 L 25.546875 -32.496094 L 25.699219 -33.445312 L 25.199219 -34.445312 L 24.148438 -34.898438 L 20.148438 -34.945312 L 19.25 -34.847656 L 18.25 -34.996094 L 16.046875 -34.898438 L 15.046875 -34.996094 L 13.097656 -34.945312 L 12.199219 -35.046875 L 5.648438 -34.898438 L 4.199219 -34.546875 L 3.699219 -33.445312 L 3.800781 -31.445312 L 3.601562 -29.996094 L 3.800781 -27.445312 L 3.699219 -26.398438 L 3.800781 -25.496094 L 3.800781 -16.546875 L 3.648438 -15.5 L 3.800781 -13.546875 L 3.699219 -11.550781 L 3.851562 -10.5 L 3.75 -9.398438 L 3.800781 -8.449219 L 3.648438 -7.550781 L 3.75 -6.398438 L 3.75 -5.398438 L 3.851562 -3.449219 L 3.800781 -2.449219 Z M 3.601562 -1.449219"/></g><g id="i"><path d="M 18.296875 0.601562 L 19.597656 0.648438 L 22.296875 0.398438 L 23.296875 0.199219 L 24.246094 0.148438 L 25.097656 -0.101562 L 28.796875 -1.699219 L 29.496094 -2.300781 L 31.148438 -3.351562 L 32.597656 -4.898438 L 34.195312 -7.25 L 35.347656 -9.550781 L 35.996094 -11.699219 L 36.046875 -12.648438 L 36.347656 -13.648438 L 36.546875 -17.449219 L 36.394531 -18.449219 L 35.796875 -19.449219 L 34.347656 -19.898438 L 21.796875 -19.898438 L 20.246094 -19.347656 L 19.796875 -18.398438 L 19.699219 -14.648438 L 19.898438 -13.699219 L 20.199219 -12.847656 L 21.148438 -12.398438 L 22.097656 -12.398438 L 22.996094 -12.296875 L 25.996094 -12.449219 L 26.699219 -11.898438 L 26.898438 -11.050781 L 26.496094 -10.25 L 25.046875 -8.847656 L 24.246094 -8.449219 L 22.347656 -7.847656 L 21.347656 -7.699219 L 19.898438 -7.648438 L 18.347656 -7.75 L 17.449219 -7.949219 L 16.546875 -8.300781 L 14.75 -9.25 L 13.25 -10.449219 L 12.699219 -11.300781 L 12.296875 -12.148438 L 11.75 -13.046875 L 11.398438 -14 L 11.097656 -19 L 11.648438 -20.796875 L 11.847656 -21.796875 L 12.597656 -23.648438 L 13.898438 -25.046875 L 15.546875 -26.199219 L 16.398438 -26.597656 L 18.347656 -27.246094 L 19.746094 -27.296875 L 22.347656 -26.996094 L 23.296875 -26.746094 L 25.796875 -25.199219 L 26.296875 -24.398438 L 27.398438 -23.597656 L 28.496094 -23.097656 L 33.398438 -23.097656 L 34.347656 -23.199219 L 35.195312 -23.496094 L 35.546875 -24.597656 L 33.945312 -28.296875 L 33.246094 -28.996094 L 31.996094 -30.597656 L 30.546875 -32.046875 L 27.148438 -34.148438 L 26.046875 -34.445312 L 25.246094 -34.796875 L 24.246094 -34.945312 L 23.148438 -35.246094 L 18.199219 -35.496094 L 15.148438 -34.996094 L 11.347656 -33.648438 L 10.449219 -33.195312 L 7.949219 -31.496094 L 6.449219 -30.097656 L 5.800781 -29.246094 L 5.300781 -28.445312 L 4.550781 -27.746094 L 4 -26.796875 L 2.449219 -22.996094 L 2.398438 -22.097656 L 1.851562 -19.898438 L 1.949219 -17.398438 L 1.851562 -16 L 1.898438 -14.949219 L 2.75 -11.097656 L 3.800781 -8.347656 L 4.347656 -7.398438 L 6.148438 -5.148438 L 7.550781 -3.699219 L 10.75 -1.550781 L 11.648438 -1.101562 L 14.449219 -0.101562 L 17.25 0.5 Z M 18.296875 0.601562"/></g><g id="j"><path d="M 2.398438 -1.449219 L 2.898438 -0.398438 L 3.898438 -0.0507812 L 18.75 0.0507812 L 19.699219 -0.449219 L 20.246094 -1.351562 L 20.246094 -2.449219 L 20.148438 -3.351562 L 20.296875 -6.398438 L 19.597656 -7.25 L 16.25 -8.300781 L 15.699219 -9.300781 L 15.796875 -13.398438 L 15.597656 -15.398438 L 15.796875 -17.5 L 15.699219 -19 L 15.796875 -20.546875 L 15.699219 -21.496094 L 15.796875 -22.496094 L 15.699219 -23.546875 L 15.699219 -25.648438 L 16.25 -26.546875 L 17.199219 -27.097656 L 18.296875 -27.148438 L 19.25 -27.695312 L 19.796875 -28.648438 L 19.796875 -31.597656 L 19.898438 -32.496094 L 19.796875 -33.496094 L 19.398438 -34.496094 L 17.796875 -34.945312 L 11.449219 -34.996094 L 10.347656 -34.898438 L 7.300781 -34.945312 L 6.347656 -34.898438 L 4.398438 -34.996094 L 3.300781 -34.496094 L 2.75 -33.445312 L 2.75 -32.496094 L 2.648438 -31.648438 L 2.648438 -30.546875 L 2.75 -29.546875 L 2.75 -28.597656 L 3.25 -27.648438 L 6.300781 -26.597656 L 6.949219 -25.699219 L 6.800781 -21.449219 L 6.847656 -20.597656 L 7 -19.449219 L 6.949219 -17.398438 L 6.847656 -16.398438 L 7.050781 -14.449219 L 6.800781 -13.449219 L 7 -11.300781 L 6.898438 -9.347656 L 6.398438 -8.25 L 3.101562 -7.199219 L 2.5 -6.25 L 2.398438 -5.300781 Z M 2.398438 -1.449219"/></g><g id="k"><path d="M 18.398438 0.5 L 21.398438 0.648438 L 26.246094 -0.351562 L 28.996094 -1.550781 L 29.746094 -2.050781 L 30.648438 -2.601562 L 31.496094 -3.199219 L 32.148438 -3.851562 L 32.695312 -4.699219 L 33.546875 -5.347656 L 35.046875 -7.949219 L 35.496094 -8.847656 L 35.746094 -9.800781 L 36.097656 -10.800781 L 36.246094 -11.75 L 35.945312 -12.648438 L 34.695312 -13.199219 L 29.347656 -13.25 L 28.246094 -12.75 L 27.246094 -11.796875 L 26.847656 -10.949219 L 24.949219 -8.898438 L 23.246094 -8.050781 L 22.246094 -7.75 L 21.199219 -7.648438 L 18.398438 -7.699219 L 15.699219 -8.699219 L 14.75 -9.148438 L 14.097656 -9.847656 L 12.25 -12.25 L 11.847656 -13.097656 L 11.25 -15.046875 L 11.097656 -17.398438 L 11.148438 -19 L 11.5 -19.898438 L 11.550781 -20.898438 L 11.847656 -21.796875 L 12.699219 -23.597656 L 13.949219 -25.148438 L 15.597656 -26.347656 L 16.546875 -26.746094 L 18.296875 -27.246094 L 21.398438 -27.148438 L 23.296875 -26.796875 L 24.347656 -26.449219 L 25.796875 -25.246094 L 26.546875 -24.449219 L 26.996094 -23.597656 L 27.898438 -22.648438 L 28.996094 -22.199219 L 34.046875 -22.097656 L 35.046875 -22.199219 L 35.847656 -22.648438 L 36.144531 -23.699219 L 35.746094 -24.699219 L 35.597656 -25.597656 L 34.796875 -27.496094 L 32.945312 -30.046875 L 30.347656 -32.398438 L 29.246094 -33.148438 L 26.398438 -34.445312 L 24.449219 -34.996094 L 21.949219 -35.347656 L 17.398438 -35.347656 L 16.546875 -35.246094 L 15.597656 -34.945312 L 13.648438 -34.546875 L 12.699219 -34.195312 L 11.949219 -33.746094 L 11.050781 -33.398438 L 7.550781 -31.148438 L 6.949219 -30.347656 L 5.597656 -29.097656 L 5 -28.246094 L 2.699219 -23.746094 L 1.800781 -17.5 L 2 -15.898438 L 2 -13.898438 L 2.5 -11.949219 L 2.898438 -11 L 3.050781 -10.097656 L 3.550781 -9.199219 L 3.898438 -8.347656 L 5.898438 -5.449219 L 7.699219 -3.699219 L 8.550781 -3.148438 L 9.300781 -2.550781 L 12.699219 -0.699219 L 13.699219 -0.351562 L 14.449219 -0.148438 L 15.5 0.199219 L 16.546875 0.300781 L 17.449219 0.5 Z M 18.398438 0.5"/></g><clipPath id="a"><path d="M 121 210 L 259.703125 210 L 259.703125 221.761719 L 121 221.761719 Z M 121 210"/></clipPath><clipPath id="b"><path d="M 178 71.761719 L 243 71.761719 L 243 132 L 178 132 Z M 178 71.761719"/></clipPath><clipPath id="c"><path d="M 218 71.761719 L 243 71.761719 L 243 97 L 218 97 Z M 218 71.761719"/></clipPath></defs><path fill="#FFF" d="M-37.5 -37.5H412.5V412.5H-37.5z"/><path fill="#FFF" d="M-37.5 -37.5H412.5V412.5H-37.5z"/><path fill="#FFF" d="M-37.5 -37.5H412.5V412.5H-37.5z"/><path fill="#71C1E8" d="M 9.195312 9.296875 L 366.1875 9.296875 L 366.1875 362.546875 L 9.195312 362.546875 Z M 9.195312 9.296875"/><path fill="#FFF" d="M 156.453125 185.089844 L 133.675781 185.089844 L 133.675781 214.019531 L 156.453125 214.019531 L 156.453125 185.089844"/><path fill="#71C1E8" d="M 156.453125 185.089844 L 156.453125 183.507812 L 133.675781 183.507812 C 133.257812 183.507812 132.847656 183.679688 132.558594 183.96875 C 132.261719 184.261719 132.089844 184.671875 132.089844 185.089844 L 132.089844 214.019531 C 132.089844 214.4375 132.261719 214.84375 132.558594 215.140625 C 132.847656 215.433594 133.257812 215.605469 133.675781 215.605469 L 156.453125 215.605469 C 156.867188 215.605469 157.28125 215.433594 157.570312 215.140625 C 157.867188 214.84375 158.03125 214.4375 158.03125 214.019531 L 158.03125 185.089844 C 158.03125 184.671875 157.867188 184.261719 157.570312 183.96875 C 157.28125 183.679688 156.867188 183.507812 156.453125 183.507812 L 156.453125 185.089844 L 154.871094 185.089844 L 154.871094 212.4375 L 135.25 212.4375 L 135.25 186.675781 L 156.453125 186.675781 L 156.453125 185.089844 L 154.871094 185.089844 L 156.453125 185.089844"/><path fill="#FFF" d="M 187.441406 169.558594 L 164.660156 169.558594 L 164.660156 214.019531 L 187.441406 214.019531 L 187.441406 169.558594"/><path fill="#71C1E8" d="M 187.441406 169.558594 L 187.441406 167.976562 L 164.660156 167.976562 C 164.242188 167.976562 163.832031 168.148438 163.542969 168.4375 C 163.246094 168.734375 163.082031 169.140625 163.082031 169.558594 L 163.082031 214.019531 C 163.082031 214.4375 163.246094 214.84375 163.542969 215.140625 C 163.832031 215.433594 164.242188 215.605469 164.660156 215.605469 L 187.441406 215.605469 C 187.859375 215.605469 188.265625 215.433594 188.5625 215.140625 C 188.851562 214.84375 189.023438 214.4375 189.023438 214.019531 L 189.023438 169.558594 C 189.023438 169.140625 188.851562 168.734375 188.5625 168.4375 C 188.265625 168.148438 187.859375 167.976562 187.441406 167.976562 L 187.441406 169.558594 L 185.863281 169.558594 L 185.863281 212.4375 L 166.242188 212.4375 L 166.242188 171.144531 L 187.441406 171.144531 L 187.441406 169.558594 L 185.863281 169.558594 L 187.441406 169.558594"/><path fill="#FFF" d="M 247.285156 128.472656 L 224.5 128.472656 L 224.5 214.019531 L 247.285156 214.019531 L 247.285156 128.472656"/><path fill="#71C1E8" d="M 247.285156 128.472656 L 247.285156 126.890625 L 224.5 126.890625 C 224.085938 126.890625 223.679688 127.0625 223.382812 127.359375 C 223.09375 127.648438 222.921875 128.0625 222.921875 128.472656 L 222.921875 214.019531 C 222.921875 214.4375 223.09375 214.84375 223.382812 215.140625 C 223.679688 215.433594 224.085938 215.605469 224.5 215.605469 L 247.285156 215.605469 C 247.699219 215.605469 248.113281 215.433594 248.402344 215.140625 C 248.699219 214.84375 248.863281 214.4375 248.863281 214.019531 L 248.863281 128.472656 C 248.863281 128.0625 248.699219 127.648438 248.402344 127.359375 C 248.113281 127.0625 247.699219 126.890625 247.285156 126.890625 L 247.285156 128.472656 L 245.703125 128.472656 L 245.703125 212.4375 L 226.082031 212.4375 L 226.082031 130.058594 L 247.285156 130.058594 L 247.285156 128.472656 L 245.703125 128.472656 L 247.285156 128.472656"/><path fill="#FFF" d="M 217.671875 146.722656 L 194.886719 146.722656 L 194.886719 214.019531 L 217.671875 214.019531 L 217.671875 146.722656"/><path fill="#71C1E8" d="M 217.671875 146.722656 L 217.671875 145.140625 L 194.886719 145.140625 C 194.472656 145.140625 194.066406 145.304688 193.769531 145.601562 C 193.472656 145.898438 193.308594 146.304688 193.308594 146.722656 L 193.308594 214.019531 C 193.308594 214.4375 193.472656 214.84375 193.769531 215.140625 C 194.066406 215.433594 194.472656 215.605469 194.886719 215.605469 L 217.671875 215.605469 C 218.082031 215.605469 218.492188 215.433594 218.78125 215.140625 C 219.078125 214.84375 219.25 214.4375 219.25 214.019531 L 219.25 146.722656 C 219.25 146.304688 219.078125 145.898438 218.78125 145.601562 C 218.492188 145.304688 218.082031 145.140625 217.671875 145.140625 L 217.671875 146.722656 L 216.089844 146.722656 L 216.089844 212.4375 L 196.46875 212.4375 L 196.46875 148.308594 L 217.671875 148.308594 L 217.671875 146.722656 L 216.089844 146.722656 L 217.671875 146.722656"/><path fill="#FFF" d="M 124.5625 220.164062 C 123.691406 220.164062 122.984375 219.460938 122.984375 218.582031 L 122.984375 214.019531 C 122.984375 213.140625 123.691406 212.4375 124.5625 212.4375 L 256.402344 212.4375 C 257.273438 212.4375 257.984375 213.140625 257.984375 214.019531 L 257.984375 218.582031 C 257.984375 219.460938 257.273438 220.164062 256.402344 220.164062 L 124.5625 220.164062"/><g clip-path="url(#a)"><path fill="#71C1E8" d="M 256.402344 210.851562 L 124.5625 210.851562 C 122.8125 210.851562 121.402344 212.273438 121.402344 214.019531 L 121.402344 218.582031 C 121.402344 220.335938 122.8125 221.75 124.5625 221.75 L 256.402344 221.75 C 258.148438 221.75 259.5625 220.335938 259.5625 218.582031 L 259.5625 214.019531 C 259.5625 212.273438 258.148438 210.851562 256.402344 210.851562 Z M 256.402344 214.019531 L 256.402344 218.582031 L 124.5625 218.582031 L 124.5625 214.019531 L 256.402344 214.019531"/></g><path fill="#FFF" d="M 187.878906 123.9375 L 185.605469 121.285156 L 183.328125 118.636719 C 183.328125 118.636719 174.9375 117.230469 171.1875 121.941406 C 167.433594 126.65625 166.816406 137.476562 166.816406 137.476562 C 166.816406 137.476562 177.589844 138.480469 182.792969 135.472656 C 188 132.464844 187.878906 123.9375 187.878906 123.9375"/><path fill="#71C1E8" d="M 187.878906 123.9375 L 189.082031 122.90625 L 186.804688 120.25 L 184.53125 117.605469 C 184.285156 117.320312 183.953125 117.128906 183.589844 117.070312 C 183.523438 117.058594 182.285156 116.855469 180.503906 116.855469 C 179.007812 116.855469 177.128906 116.996094 175.226562 117.566406 C 174.28125 117.851562 173.324219 118.242188 172.421875 118.792969 C 171.519531 119.347656 170.664062 120.054688 169.949219 120.953125 C 168.84375 122.347656 168.054688 124.050781 167.433594 125.832031 C 166.5 128.503906 165.960938 131.363281 165.648438 133.578125 C 165.332031 135.789062 165.242188 137.355469 165.234375 137.386719 C 165.1875 138.234375 165.824219 138.976562 166.671875 139.050781 C 166.703125 139.058594 168.472656 139.222656 170.949219 139.222656 C 172.808594 139.222656 175.050781 139.128906 177.28125 138.800781 C 179.519531 138.464844 181.738281 137.90625 183.582031 136.847656 C 185.097656 135.96875 186.21875 134.71875 187.03125 133.394531 C 188.253906 131.394531 188.832031 129.207031 189.136719 127.433594 C 189.441406 125.667969 189.460938 124.3125 189.460938 123.984375 L 189.460938 123.964844 L 188.566406 123.949219 L 189.460938 123.964844 L 188.566406 123.949219 L 189.460938 123.964844 C 189.464844 123.570312 189.332031 123.203125 189.078125 122.90625 L 187.878906 123.9375 L 186.300781 123.90625 L 186.300781 123.984375 C 186.300781 124.25 186.269531 126.292969 185.671875 128.503906 C 185.375 129.609375 184.945312 130.746094 184.339844 131.734375 C 183.734375 132.722656 182.976562 133.542969 182.003906 134.097656 C 180.726562 134.847656 178.828125 135.371094 176.820312 135.667969 C 174.808594 135.96875 172.691406 136.054688 170.949219 136.054688 C 169.78125 136.054688 168.773438 136.019531 168.066406 135.972656 C 167.714844 135.953125 167.433594 135.9375 167.238281 135.921875 C 167.144531 135.917969 167.074219 135.910156 167.023438 135.902344 L 166.972656 135.902344 L 166.960938 135.898438 L 166.816406 137.476562 L 168.394531 137.570312 L 168.394531 137.542969 C 168.410156 137.273438 168.59375 134.585938 169.203125 131.46875 C 169.507812 129.910156 169.925781 128.246094 170.46875 126.730469 C 171 125.21875 171.675781 123.863281 172.421875 122.929688 C 172.882812 122.355469 173.433594 121.886719 174.066406 121.5 C 175.007812 120.929688 176.125 120.550781 177.257812 120.320312 C 178.394531 120.09375 179.539062 120.023438 180.503906 120.023438 C 181.269531 120.023438 181.925781 120.066406 182.386719 120.113281 C 182.613281 120.136719 182.792969 120.15625 182.914062 120.167969 C 182.96875 120.183594 183.011719 120.1875 183.039062 120.1875 L 183.070312 120.195312 L 183.078125 120.195312 L 183.171875 119.585938 L 183.070312 120.195312 L 183.078125 120.195312 L 183.171875 119.585938 L 183.070312 120.195312 L 183.328125 118.636719 L 182.136719 119.664062 L 184.402344 122.316406 L 186.679688 124.972656 L 187.878906 123.9375 L 186.300781 123.90625 L 187.878906 123.9375"/><path fill="#FFF" d="M 188.335938 129.753906 C 187.910156 129.722656 187.527344 129.523438 187.246094 129.207031 L 178.035156 118.464844 C 177.464844 117.804688 177.539062 116.804688 178.203125 116.234375 L 181.730469 113.195312 C 182.019531 112.941406 182.386719 112.808594 182.761719 112.808594 L 182.878906 112.816406 C 183.296875 112.847656 183.683594 113.042969 183.960938 113.359375 L 193.175781 124.101562 C 193.742188 124.769531 193.667969 125.769531 193.003906 126.339844 L 189.476562 129.378906 C 189.195312 129.625 188.828125 129.757812 188.449219 129.757812 L 188.335938 129.753906"/><path fill="#71C1E8" d="M 182.761719 111.226562 C 182.007812 111.226562 181.273438 111.496094 180.699219 111.992188 L 177.175781 115.03125 C 175.851562 116.171875 175.703125 118.175781 176.839844 119.496094 L 186.054688 130.242188 C 186.601562 130.875 187.375 131.265625 188.207031 131.335938 C 188.289062 131.335938 188.367188 131.34375 188.449219 131.34375 C 189.199219 131.34375 189.933594 131.078125 190.507812 130.578125 L 194.035156 127.535156 C 195.355469 126.394531 195.507812 124.402344 194.371094 123.070312 L 185.15625 112.328125 C 184.613281 111.6875 183.835938 111.292969 182.996094 111.238281 C 182.917969 111.230469 182.835938 111.226562 182.761719 111.226562 Z M 182.761719 114.390625 L 191.972656 125.136719 L 188.449219 128.175781 L 179.234375 117.433594 L 182.761719 114.390625"/><path fill="#FFF" d="M 198.660156 129.9375 C 198.210938 129.9375 197.769531 129.746094 197.460938 129.386719 L 180.144531 109.191406 C 179.621094 108.589844 179.632812 107.683594 180.175781 107.09375 C 181.433594 105.714844 211.253906 73.355469 233.066406 73.355469 C 235.414062 73.355469 237.621094 73.734375 239.625 74.484375 C 240.128906 74.671875 240.503906 75.109375 240.617188 75.636719 C 245.402344 98.519531 201.414062 128.402344 199.539062 129.671875 C 199.265625 129.847656 198.964844 129.9375 198.660156 129.9375"/><g clip-path="url(#b)"><path fill="#71C1E8" d="M 233.066406 71.769531 C 210.566406 71.769531 180.289062 104.625 179.007812 106.023438 C 177.925781 107.203125 177.902344 109.007812 178.945312 110.230469 L 196.265625 130.417969 C 196.886719 131.140625 197.769531 131.519531 198.660156 131.519531 C 199.265625 131.519531 199.878906 131.351562 200.417969 130.980469 C 200.886719 130.671875 212.03125 123.132812 222.789062 112.726562 C 237.796875 98.203125 244.320312 85.613281 242.164062 75.316406 C 241.9375 74.253906 241.191406 73.378906 240.175781 72.996094 C 238 72.183594 235.605469 71.769531 233.066406 71.769531 Z M 233.066406 74.9375 C 235.164062 74.9375 237.183594 75.261719 239.066406 75.96875 C 243.6875 98.0625 198.660156 128.351562 198.660156 128.351562 L 190.003906 118.261719 L 181.339844 108.160156 C 181.339844 108.160156 211.703125 74.9375 233.066406 74.9375"/></g><path fill="#FFF" d="M 234.898438 94.730469 C 234.585938 94.730469 234.285156 94.640625 234.023438 94.46875 C 231.199219 92.601562 228.414062 90.105469 225.96875 87.253906 C 223.527344 84.40625 221.488281 81.277344 220.066406 78.195312 C 219.882812 77.804688 219.871094 77.347656 220.027344 76.949219 C 220.183594 76.542969 220.5 76.226562 220.90625 76.0625 C 225.34375 74.265625 229.4375 73.355469 233.070312 73.355469 C 235.421875 73.355469 237.628906 73.734375 239.625 74.484375 C 240.128906 74.671875 240.503906 75.109375 240.617188 75.636719 C 241.734375 80.992188 240.269531 87.152344 236.25 93.949219 C 236.035156 94.324219 235.667969 94.597656 235.25 94.691406 C 235.132812 94.71875 235.011719 94.730469 234.898438 94.730469"/><g clip-path="url(#c)"><path fill="#71C1E8" d="M 233.070312 71.773438 C 229.230469 71.773438 224.9375 72.722656 220.3125 74.59375 C 219.507812 74.921875 218.878906 75.5625 218.554688 76.367188 C 218.238281 77.171875 218.265625 78.070312 218.628906 78.863281 C 220.109375 82.074219 222.234375 85.328125 224.773438 88.289062 C 227.3125 91.246094 230.207031 93.84375 233.152344 95.792969 C 233.675781 96.136719 234.285156 96.3125 234.898438 96.3125 C 235.132812 96.3125 235.371094 96.289062 235.605469 96.238281 C 236.445312 96.042969 237.171875 95.507812 237.613281 94.761719 C 241.835938 87.609375 243.367188 81.066406 242.164062 75.316406 C 241.9375 74.253906 241.191406 73.378906 240.175781 72.996094 C 238 72.183594 235.605469 71.773438 233.070312 71.773438 Z M 233.070312 74.941406 C 235.167969 74.941406 237.183594 75.261719 239.066406 75.96875 C 240.207031 81.390625 238.339844 87.304688 234.898438 93.148438 C 232.269531 91.410156 229.609375 89.074219 227.167969 86.222656 C 224.730469 83.378906 222.8125 80.390625 221.492188 77.53125 C 225.488281 75.917969 229.410156 74.941406 233.070312 74.941406"/></g><path fill="#FFF" d="M 195.917969 131.382812 L 177.9375 110.421875 L 182.148438 106.796875 L 200.125 127.765625 L 195.917969 131.382812"/><path fill="#71C1E8" d="M 195.917969 131.382812 L 197.117188 130.355469 L 180.164062 110.589844 L 181.976562 109.035156 L 197.894531 127.59375 L 194.886719 130.183594 L 195.917969 131.382812 L 197.117188 130.355469 L 195.917969 131.382812 L 196.949219 132.585938 L 201.152344 128.960938 C 201.472656 128.683594 201.667969 128.304688 201.699219 127.878906 C 201.730469 127.453125 201.597656 127.046875 201.320312 126.726562 L 183.34375 105.765625 C 182.773438 105.105469 181.773438 105.023438 181.109375 105.601562 L 176.910156 109.222656 C 176.246094 109.792969 176.167969 110.792969 176.746094 111.453125 L 194.722656 132.414062 C 195.292969 133.078125 196.289062 133.15625 196.949219 132.585938 L 195.917969 131.382812"/><path fill="#FFF" d="M 220.828125 97.433594 C 218.769531 99.207031 215.660156 98.972656 213.890625 96.910156 C 212.121094 94.84375 212.355469 91.726562 214.414062 89.953125 C 216.476562 88.179688 219.578125 88.410156 221.355469 90.480469 C 223.125 92.542969 222.890625 95.660156 220.828125 97.433594"/><path fill="#71C1E8" d="M 220.828125 97.433594 L 219.800781 96.230469 C 219.160156 96.777344 218.398438 97.042969 217.625 97.042969 C 216.679688 97.042969 215.75 96.648438 215.089844 95.875 C 214.542969 95.238281 214.28125 94.46875 214.277344 93.699219 C 214.28125 92.746094 214.675781 91.824219 215.4375 91.15625 C 216.078125 90.605469 216.84375 90.347656 217.621094 90.347656 C 218.566406 90.347656 219.488281 90.738281 220.152344 91.511719 C 220.695312 92.144531 220.957031 92.914062 220.957031 93.691406 C 220.957031 94.640625 220.570312 95.566406 219.800781 96.230469 L 221.859375 98.632812 C 223.351562 97.347656 224.121094 95.515625 224.117188 93.691406 C 224.121094 92.191406 223.597656 90.667969 222.546875 89.445312 C 221.265625 87.953125 219.441406 87.179688 217.621094 87.179688 C 216.121094 87.179688 214.605469 87.699219 213.386719 88.75 C 211.886719 90.035156 211.117188 91.867188 211.117188 93.699219 C 211.117188 95.199219 211.640625 96.71875 212.691406 97.941406 C 213.972656 99.4375 215.800781 100.210938 217.625 100.210938 C 219.117188 100.210938 220.632812 99.691406 221.859375 98.632812 L 220.828125 97.433594"/><path fill="#FFF" d="M 199.34375 93.292969 L 188.898438 102.292969 C 188.898438 102.292969 182.394531 99.386719 172.820312 106.929688 L 171.183594 105.023438 C 171.183594 105.023438 185.78125 82.980469 199.34375 93.292969"/><path fill="#71C1E8" d="M 199.34375 93.292969 L 198.3125 92.089844 L 187.867188 101.089844 L 188.898438 102.292969 L 189.542969 100.847656 C 189.382812 100.78125 187.929688 100.160156 185.476562 100.160156 C 183.890625 100.160156 181.886719 100.425781 179.582031 101.25 C 177.273438 102.070312 174.664062 103.460938 171.839844 105.683594 L 172.820312 106.929688 L 174.015625 105.898438 L 172.382812 103.992188 L 171.183594 105.023438 L 172.503906 105.898438 C 172.609375 105.734375 175 102.191406 178.601562 98.757812 C 180.402344 97.046875 182.5 95.363281 184.730469 94.132812 C 186.964844 92.898438 189.308594 92.125 191.625 92.132812 C 193.839844 92.140625 196.058594 92.792969 198.390625 94.554688 L 199.34375 93.292969 L 198.3125 92.089844 L 199.34375 93.292969 L 200.296875 92.03125 C 197.484375 89.882812 194.496094 88.953125 191.625 88.964844 C 188.554688 88.964844 185.667969 89.980469 183.082031 91.421875 C 179.203125 93.601562 175.941406 96.769531 173.609375 99.390625 C 171.285156 102.015625 169.894531 104.105469 169.867188 104.148438 C 169.476562 104.738281 169.527344 105.519531 169.980469 106.054688 L 171.617188 107.960938 C 172.167969 108.601562 173.128906 108.699219 173.792969 108.171875 C 176.378906 106.136719 178.679688 104.933594 180.644531 104.230469 C 182.609375 103.527344 184.238281 103.324219 185.476562 103.324219 C 186.4375 103.324219 187.171875 103.445312 187.644531 103.558594 C 187.878906 103.617188 188.050781 103.667969 188.15625 103.707031 L 188.257812 103.742188 L 188.269531 103.75 L 188.59375 102.976562 L 188.253906 103.738281 L 188.269531 103.75 L 188.59375 102.976562 L 188.253906 103.738281 C 188.808594 103.992188 189.464844 103.894531 189.925781 103.496094 L 200.375 94.488281 C 200.734375 94.179688 200.9375 93.722656 200.921875 93.242188 C 200.902344 92.761719 200.683594 92.316406 200.296875 92.03125 L 199.34375 93.292969"/><path fill="#FFF" d="M 216.632812 112.074219 L 206.1875 121.074219 C 206.1875 121.074219 208.082031 127.960938 199.210938 136.316406 L 200.839844 138.222656 C 200.839844 138.222656 224.773438 127.0625 216.632812 112.074219"/><path fill="#71C1E8" d="M 216.632812 112.074219 L 215.605469 110.875 L 205.15625 119.878906 C 204.695312 120.277344 204.507812 120.910156 204.664062 121.5 L 205.6875 121.214844 L 204.664062 121.488281 L 204.664062 121.5 L 205.6875 121.214844 L 204.664062 121.488281 L 204.757812 121.460938 L 204.664062 121.480469 L 204.664062 121.488281 L 204.757812 121.460938 L 204.664062 121.480469 C 204.671875 121.507812 204.777344 121.96875 204.777344 122.777344 C 204.777344 123.863281 204.582031 125.554688 203.664062 127.675781 C 202.742188 129.796875 201.101562 132.371094 198.125 135.164062 C 197.511719 135.746094 197.460938 136.707031 198.007812 137.355469 L 199.640625 139.253906 C 200.101562 139.792969 200.867188 139.957031 201.503906 139.660156 C 201.574219 139.628906 206.03125 137.550781 210.566406 133.914062 C 212.835938 132.097656 215.128906 129.886719 216.898438 127.289062 C 218.65625 124.699219 219.902344 121.675781 219.902344 118.339844 C 219.90625 116.078125 219.320312 113.703125 218.023438 111.320312 C 217.796875 110.894531 217.390625 110.605469 216.917969 110.523438 C 216.449219 110.433594 215.96875 110.558594 215.605469 110.875 L 216.632812 112.074219 L 215.25 112.835938 C 216.3125 114.804688 216.742188 116.621094 216.742188 118.339844 C 216.742188 120.871094 215.800781 123.265625 214.28125 125.503906 C 212.019531 128.855469 208.476562 131.722656 205.5 133.707031 C 204.007812 134.699219 202.667969 135.480469 201.699219 136 C 201.21875 136.265625 200.828125 136.460938 200.570312 136.59375 C 200.429688 136.664062 200.328125 136.707031 200.265625 136.746094 L 200.195312 136.777344 L 200.175781 136.785156 L 200.171875 136.789062 L 200.839844 138.222656 L 202.035156 137.191406 L 200.40625 135.285156 L 199.210938 136.316406 L 200.292969 137.476562 C 203.539062 134.414062 205.46875 131.484375 206.566406 128.9375 C 207.667969 126.394531 207.9375 124.242188 207.9375 122.777344 C 207.9375 121.53125 207.742188 120.769531 207.710938 120.65625 L 206.1875 121.074219 L 207.21875 122.277344 L 217.664062 113.277344 L 216.632812 112.074219 L 215.25 112.835938 L 216.632812 112.074219"/><path fill="#71C1E8" d="M 160.289062 132.972656 L 115.714844 175.316406 C 115.125 175.882812 115.058594 176.800781 115.5625 177.445312 C 116.0625 178.085938 116.972656 178.242188 117.65625 177.800781 L 167.667969 145.648438 C 168.402344 145.171875 168.617188 144.195312 168.144531 143.453125 C 167.675781 142.71875 166.695312 142.503906 165.964844 142.980469 L 130.035156 166.074219 L 162.460938 135.269531 C 163.101562 134.667969 163.125 133.667969 162.523438 133.035156 C 161.925781 132.402344 160.917969 132.371094 160.289062 132.972656"/><g fill="#FFF"><use x="44.497" y="292.25" xmlns:xlink="http://www.w3.org/1999/xlink" xlink:href="#d" xlink:type="simple" xlink:actuate="onLoad" xlink:show="embed"/></g><g fill="#FFF"><use x="76.392" y="292.25" xmlns:xlink="http://www.w3.org/1999/xlink" xlink:href="#e" xlink:type="simple" xlink:actuate="onLoad" xlink:show="embed"/></g><g fill="#FFF"><use x="104.338" y="292.25" xmlns:xlink="http://www.w3.org/1999/xlink" xlink:href="#f" xlink:type="simple" xlink:actuate="onLoad" xlink:show="embed"/></g><g fill="#FFF"><use x="138.982" y="292.25" xmlns:xlink="http://www.w3.org/1999/xlink" xlink:href="#g" xlink:type="simple" xlink:actuate="onLoad" xlink:show="embed"/></g><g fill="#FFF"><use x="175.277" y="292.25" xmlns:xlink="http://www.w3.org/1999/xlink" xlink:href="#e" xlink:type="simple" xlink:actuate="onLoad" xlink:show="embed"/></g><g fill="#FFF"><use x="203.222" y="292.25" xmlns:xlink="http://www.w3.org/1999/xlink" xlink:href="#h" xlink:type="simple" xlink:actuate="onLoad" xlink:show="embed"/></g><g fill="#FFF"><use x="231.868" y="292.25" xmlns:xlink="http://www.w3.org/1999/xlink" xlink:href="#i" xlink:type="simple" xlink:actuate="onLoad" xlink:show="embed"/></g><g fill="#FFF"><use x="270.162" y="292.25" xmlns:xlink="http://www.w3.org/1999/xlink" xlink:href="#j" xlink:type="simple" xlink:actuate="onLoad" xlink:show="embed"/></g><g fill="#FFF"><use x="292.859" y="292.25" xmlns:xlink="http://www.w3.org/1999/xlink" xlink:href="#k" xlink:type="simple" xlink:actuate="onLoad" xlink:show="embed"/></g></svg>